<svg width="22" height="22" viewBox="0 0 22 22" fill="none" xmlns="http://www.w3.org/2000/svg">
<path fill-rule="evenodd" clip-rule="evenodd" d="M5.28243 13.0395C5.47699 13.3144 5.69087 13.5746 5.9221 13.8182L10.2278 19.0599C10.6276 19.5467 11.3726 19.5469 11.7728 19.0604L16.1302 13.7625C16.3222 13.5558 16.5018 13.3375 16.668 13.1087L16.7573 13H16.7453C17.5362 11.8662 18 10.4873 18 9C18 5.13401 14.866 2 11 2C7.13401 2 4 5.13401 4 9C4 10.4873 4.46382 11.8662 5.25469 13H5.25L5.28243 13.0395ZM14 9C14 10.6568 12.6568 12 11 12C9.34315 12 8 10.6568 8 9C8 7.34315 9.34315 6 11 6C12.6568 6 14 7.34315 14 9Z" fill="#0045FF"/>
</svg>
