<svg width="97" height="17" viewBox="0 0 97 17" fill="none" xmlns="http://www.w3.org/2000/svg">
<path d="M18.711 0.853999V17H14.778V7.317L11.167 17H7.993L4.359 7.294V17H0.426V0.853999H5.072L9.603 12.032L14.088 0.853999H18.711ZM25.8723 0.853999V17H21.9393V0.853999H25.8723ZM33.0555 13.964H38.2075V17H29.1225V0.853999H33.0555V13.964ZM50.5344 14.148H44.5084L43.5424 17H39.4254L45.2674 0.853999H49.8214L55.6634 17H51.5004L50.5344 14.148ZM49.5224 11.112L47.5214 5.201L45.5434 11.112H49.5224ZM72.2854 17H68.3524L61.7744 7.041V17H57.8414V0.853999H61.7744L68.3524 10.859V0.853999H72.2854V17ZM81.5854 0.853999C83.2874 0.853999 84.7747 1.19133 86.0474 1.866C87.32 2.54067 88.3014 3.49133 88.9914 4.718C89.6967 5.92933 90.0494 7.33233 90.0494 8.927C90.0494 10.5063 89.6967 11.9093 88.9914 13.136C88.3014 14.3627 87.3124 15.3133 86.0244 15.988C84.7517 16.6627 83.272 17 81.5854 17H75.5364V0.853999H81.5854ZM81.3324 13.596C82.8197 13.596 83.9774 13.1897 84.8054 12.377C85.6334 11.5643 86.0474 10.4143 86.0474 8.927C86.0474 7.43967 85.6334 6.282 84.8054 5.454C83.9774 4.626 82.8197 4.212 81.3324 4.212H79.4694V13.596H81.3324ZM96.5803 0.853999V17H92.6473V0.853999H96.5803Z" fill="#0D0D0D"/>
</svg>
