<svg width="14" height="18" viewBox="0 0 14 18" fill="none" xmlns="http://www.w3.org/2000/svg">
<path fill-rule="evenodd" clip-rule="evenodd" d="M1.28243 11.0395C1.47699 11.3144 1.69087 11.5746 1.9221 11.8182L6.22776 17.0599C6.62764 17.5467 7.37262 17.5469 7.77281 17.0604L12.1302 11.7625C12.3222 11.5558 12.5018 11.3375 12.668 11.1087L12.7573 11H12.7453C13.5362 9.86617 14 8.48725 14 7C14 3.13401 10.866 0 7 0C3.13401 0 0 3.13401 0 7C0 8.48725 0.463815 9.86617 1.25469 11H1.25L1.28243 11.0395ZM10 7C10 8.65685 8.65685 10 7 10C5.34315 10 4 8.65685 4 7C4 5.34315 5.34315 4 7 4C8.65685 4 10 5.34315 10 7Z" fill="#0045FF"/>
</svg>
