<svg width="99" height="20" viewBox="0 0 99 20" fill="none" xmlns="http://www.w3.org/2000/svg">
<path d="M83.424 9.316C84.3853 9.40933 85.118 9.708 85.622 10.212C86.126 10.7067 86.378 11.3413 86.378 12.116C86.378 12.676 86.238 13.1847 85.958 13.642C85.678 14.09 85.258 14.4493 84.698 14.72C84.1473 14.9813 83.4707 15.112 82.668 15.112C81.968 15.112 81.296 15.0093 80.652 14.804C80.008 14.5893 79.4807 14.2953 79.07 13.922L79.714 12.816C80.05 13.1333 80.4793 13.39 81.002 13.586C81.5247 13.7727 82.08 13.866 82.668 13.866C83.396 13.866 83.9607 13.712 84.362 13.404C84.7727 13.096 84.978 12.6713 84.978 12.13C84.978 11.5887 84.7773 11.1687 84.376 10.87C83.9747 10.5713 83.368 10.422 82.556 10.422H81.772V9.442L84.236 6.418H79.518V5.2H85.986V6.152L83.424 9.316ZM88.7217 13.166C88.9831 13.166 89.1977 13.2593 89.3657 13.446C89.5431 13.6233 89.6317 13.8473 89.6317 14.118C89.6317 14.258 89.6131 14.3933 89.5757 14.524C89.5477 14.6547 89.4871 14.8553 89.3937 15.126L88.7357 17.072H87.8537L88.3717 14.986C88.1944 14.9207 88.0497 14.8133 87.9377 14.664C87.8351 14.5053 87.7837 14.3233 87.7837 14.118C87.7837 13.838 87.8724 13.6093 88.0497 13.432C88.2271 13.2547 88.4511 13.166 88.7217 13.166ZM93.8556 9.106C95.2556 9.106 96.2823 9.372 96.9356 9.904C97.5983 10.4267 97.9296 11.1453 97.9296 12.06C97.9296 12.6387 97.7896 13.1613 97.5096 13.628C97.2389 14.0853 96.8236 14.4493 96.2636 14.72C95.7129 14.9813 95.0316 15.112 94.2196 15.112C93.5289 15.112 92.8616 15.0093 92.2176 14.804C91.5736 14.5893 91.0416 14.2953 90.6216 13.922L91.2656 12.816C91.6016 13.1333 92.0309 13.39 92.5536 13.586C93.0763 13.7727 93.6269 13.866 94.2056 13.866C94.9429 13.866 95.5123 13.712 95.9136 13.404C96.3243 13.0867 96.5296 12.6573 96.5296 12.116C96.5296 11.528 96.3056 11.0847 95.8576 10.786C95.4096 10.478 94.6443 10.324 93.5616 10.324H91.3356L91.8536 5.2H97.3836V6.418H93.0296L92.7636 9.106H93.8556Z" fill="black"/>
<path d="M6.9999 13.6324L3.53874 15.4522L4.1999 11.5979L1.3999 8.86854L5.26932 8.30664L6.9999 4.80005L8.73048 8.30664L12.5999 8.86854L9.7999 11.5979L10.4611 15.4522L6.9999 13.6324Z" fill="#FFC000" stroke="#FFC000" stroke-linecap="round" stroke-linejoin="round"/>
<path d="M21.9999 13.6324L18.5387 15.4522L19.1999 11.5979L16.3999 8.86854L20.2693 8.30664L21.9999 4.80005L23.7305 8.30664L27.5999 8.86854L24.7999 11.5979L25.4611 15.4522L21.9999 13.6324Z" fill="#FFC000" stroke="#FFC000" stroke-linecap="round" stroke-linejoin="round"/>
<path d="M36.9999 13.6324L33.5387 15.4522L34.1999 11.5979L31.3999 8.86854L35.2693 8.30664L36.9999 4.80005L38.7305 8.30664L42.5999 8.86854L39.7999 11.5979L40.4611 15.4522L36.9999 13.6324Z" fill="#FFC000" stroke="#FFC000" stroke-linecap="round" stroke-linejoin="round"/>
<path d="M66.9999 13.6324L63.5387 15.4522L64.1999 11.5979L61.3999 8.86854L65.2693 8.30664L66.9999 4.80005L68.7305 8.30664L72.5999 8.86854L69.7999 11.5979L70.4611 15.4522L66.9999 13.6324Z" stroke="#FFC000" stroke-linecap="round" stroke-linejoin="round"/>
<path d="M51.9999 13.6324L48.5387 15.4522L49.1999 11.5979L46.3999 8.86854L50.2693 8.30664L51.9999 4.80005L53.7305 8.30664L57.5999 8.86854L54.7999 11.5979L55.4611 15.4522L51.9999 13.6324Z" stroke="#FFC000" stroke-linecap="round" stroke-linejoin="round"/>
<path fill-rule="evenodd" clip-rule="evenodd" d="M51.9999 4.80006L51.9999 4.80005L50.2693 8.30664L46.3999 8.86854L49.1999 11.5979L48.5387 15.4522L51.9999 13.6324L51.9999 4.80006Z" fill="#FFC000"/>
</svg>
