<svg width="28" height="28" viewBox="0 0 28 28" fill="none" xmlns="http://www.w3.org/2000/svg">
<g clip-path="url(#clip0_224_666)">
<path d="M8.16683 22.1667C9.45549 22.1667 10.5002 21.122 10.5002 19.8333C10.5002 18.5447 9.45549 17.5 8.16683 17.5C6.87817 17.5 5.8335 18.5447 5.8335 19.8333C5.8335 21.122 6.87817 22.1667 8.16683 22.1667Z" stroke="#0D0D0D" stroke-width="1.5" stroke-linecap="round" stroke-linejoin="round"/>
<path d="M19.8333 22.1667C21.122 22.1667 22.1667 21.122 22.1667 19.8333C22.1667 18.5447 21.122 17.5 19.8333 17.5C18.5447 17.5 17.5 18.5447 17.5 19.8333C17.5 21.122 18.5447 22.1667 19.8333 22.1667Z" stroke="#0D0D0D" stroke-width="1.5" stroke-linecap="round" stroke-linejoin="round"/>
<path d="M5.8335 19.8333H3.50016V15.1666M2.3335 5.83331H15.1668V19.8333M10.5002 19.8333H17.5002M22.1668 19.8333H24.5002V12.8333M24.5002 12.8333H15.1668M24.5002 12.8333L21.0002 6.99998H15.1668" stroke="#0D0D0D" stroke-width="1.5" stroke-linecap="round" stroke-linejoin="round"/>
<path d="M3.5 10.5H8.16667" stroke="#0D0D0D" stroke-width="1.5" stroke-linecap="round" stroke-linejoin="round"/>
</g>
<defs>
<clipPath id="clip0_224_666">
<rect width="28" height="28" fill="white"/>
</clipPath>
</defs>
</svg>
