<svg width="28" height="28" viewBox="0 0 28 28" fill="none" xmlns="http://www.w3.org/2000/svg">
<g clip-path="url(#clip0_224_680)">
<path d="M10.5 14L12.8333 16.3334L17.5 11.6667" stroke="#0D0D0D" stroke-width="1.5" stroke-linecap="round" stroke-linejoin="round"/>
<path d="M14.0001 3.5C16.7253 5.911 20.282 7.16633 23.9168 7C24.446 8.80018 24.6079 10.6884 24.3929 12.5524C24.178 14.4164 23.5905 16.2181 22.6654 17.8506C21.7404 19.4831 20.4966 20.9129 19.008 22.0552C17.5194 23.1975 15.8164 24.0289 14.0001 24.5C12.1839 24.0289 10.4809 23.1975 8.99227 22.0552C7.50368 20.9129 6.25989 19.4831 5.33483 17.8506C4.40976 16.2181 3.82229 14.4164 3.60732 12.5524C3.39235 10.6884 3.55427 8.80018 4.08347 7C7.71825 7.16633 11.275 5.911 14.0001 3.5" stroke="#0D0D0D" stroke-width="1.5" stroke-linecap="round" stroke-linejoin="round"/>
</g>
<defs>
<clipPath id="clip0_224_680">
<rect width="28" height="28" fill="white"/>
</clipPath>
</defs>
</svg>
