<svg width="658" height="394" viewBox="0 0 658 394" fill="none" xmlns="http://www.w3.org/2000/svg">
<g clip-path="url(#clip0_565_2041)">
<path d="M503.78 389.544C495.356 382.415 490.239 371.153 491.581 360.189C492.923 349.225 501.234 339.146 512.015 336.818C522.797 334.489 535.086 340.934 538.361 351.482C540.163 331.146 542.24 309.958 553.035 292.64C562.81 276.959 579.74 265.739 598.088 263.732C616.437 261.725 635.755 269.306 647.198 283.81C658.642 298.315 661.443 319.402 653.429 336.054C647.525 348.321 636.648 357.451 625.251 364.878C588.424 388.676 544.255 398.353 500.871 392.13L503.78 389.544Z" fill="#F2F2F2"/>
<path d="M629.054 269.726C613.914 282.077 600.025 295.89 587.588 310.966C568.123 334.479 552.372 360.841 540.883 389.134C540.042 391.198 543.389 392.097 544.221 390.056C563.018 344.073 593.026 303.545 631.501 272.177C633.229 270.768 630.768 268.329 629.054 269.726Z" fill="white"/>
<path d="M211.821 387.607C223.391 377.815 230.42 362.346 228.576 347.288C226.733 332.229 215.318 318.385 200.51 315.187C185.702 311.989 168.822 320.841 164.324 335.329C161.849 307.397 158.996 278.296 144.169 254.51C130.744 232.972 107.49 217.561 82.2887 214.804C57.0872 212.047 30.5533 222.46 14.8361 242.382C-0.881188 262.304 -4.72949 291.266 6.27846 314.138C14.3876 330.987 29.3276 343.526 44.9809 353.728C94.9205 386.274 156.871 399.847 215.817 391.159" fill="#F2F2F2"/>
<path d="M39.7576 223.037C60.5519 240 79.6285 258.973 96.7115 279.679C113.797 300.365 128.839 322.661 141.626 346.256C148.774 359.491 155.195 373.107 160.86 387.044C162.015 389.879 157.419 391.113 156.276 388.309C146.242 363.739 133.827 340.214 119.21 318.069C104.664 296.005 88.0153 275.407 69.4978 256.562C59.0243 245.909 47.9738 235.841 36.3965 226.403C34.0234 224.468 37.4041 221.117 39.7576 223.037L39.7576 223.037Z" fill="white"/>
<path d="M472.323 393.138H196.266V109.457C196.266 49.1023 245.292 0 305.554 0H363.035C423.297 0 472.323 49.1023 472.323 109.457V393.138Z" fill="#F2F2F2"/>
<path d="M414.843 393.138H196.266V109.457C196.205 86.3307 203.517 63.7885 217.137 45.1128C217.639 44.4275 218.14 43.751 218.656 43.0819C225.244 34.4283 233.083 26.8073 241.916 20.4704C242.415 20.1068 242.916 19.7495 243.424 19.3922C250.815 14.2696 258.81 10.082 267.227 6.92465C267.727 6.7349 268.236 6.54479 268.745 6.36244C276.358 3.64159 284.249 1.77782 292.273 0.805545C292.77 0.737484 293.281 0.684226 293.792 0.630967C301.612 -0.206416 309.498 -0.206416 317.318 0.630967C317.827 0.684226 318.338 0.737478 318.841 0.806273C326.863 1.77861 334.752 3.64215 342.363 6.36247C342.872 6.54482 343.381 6.73493 343.882 6.92504C352.195 10.0425 360.096 14.1677 367.409 19.2084C367.917 19.5579 368.425 19.9152 368.926 20.2725C373.877 23.812 378.527 27.7553 382.83 32.0621C386.28 35.5165 389.495 39.1988 392.454 43.0841C392.968 43.751 393.469 44.4275 393.97 45.1118C407.59 63.7876 414.903 86.3302 414.843 109.457V393.138Z" fill="#CCCCCC"/>
<path d="M397.069 266.258C403.752 266.258 409.17 260.832 409.17 254.138C409.17 247.444 403.752 242.018 397.069 242.018C390.386 242.018 384.968 247.444 384.968 254.138C384.968 260.832 390.386 266.258 397.069 266.258Z" fill="#6C63FF"/>
<path d="M449.708 384.641H440.436L436.024 348.82L449.71 348.821L449.708 384.641Z" fill="#FFB8B8"/>
<path d="M433.813 381.987H451.695V393.264H422.553C422.553 391.783 422.844 390.317 423.41 388.949C423.976 387.58 424.805 386.337 425.851 385.29C426.897 384.243 428.138 383.412 429.504 382.846C430.87 382.279 432.334 381.987 433.813 381.987Z" fill="#2F2E41"/>
<path d="M495.844 384.641H486.571L482.16 348.82L495.845 348.821L495.844 384.641Z" fill="#FFB8B8"/>
<path d="M479.948 381.987H497.83V393.264H468.688C468.688 391.783 468.98 390.317 469.546 388.949C470.111 387.58 470.941 386.337 471.986 385.29C473.032 384.243 474.273 383.412 475.639 382.846C477.005 382.279 478.469 381.987 479.948 381.987Z" fill="#2F2E41"/>
<path d="M403.193 256.539C402.526 255.555 402.083 254.436 401.894 253.261C401.705 252.087 401.776 250.885 402.102 249.741C402.427 248.597 402.999 247.538 403.777 246.639C404.555 245.74 405.52 245.023 406.605 244.538L438.125 157.528L453.635 166.005L417.646 249.155C418.338 251.034 418.318 253.103 417.59 254.968C416.862 256.833 415.475 258.366 413.694 259.276C411.913 260.187 409.86 260.411 407.924 259.906C405.989 259.402 404.306 258.204 403.193 256.539Z" fill="#FFB8B8"/>
<path d="M491.108 272.889C490.077 272.297 489.189 271.486 488.505 270.513C487.821 269.541 487.359 268.429 487.15 267.258C486.942 266.087 486.992 264.884 487.298 263.735C487.603 262.585 488.157 261.517 488.919 260.605L479.155 168.562L496.806 169.37L500.864 259.906C502.309 261.29 503.196 263.158 503.358 265.154C503.521 267.151 502.946 269.137 501.743 270.737C500.541 272.338 498.794 273.441 496.834 273.837C494.873 274.234 492.836 273.896 491.108 272.889Z" fill="#FFB8B8"/>
<path d="M462.949 141.411C473.208 141.411 481.525 133.082 481.525 122.806C481.525 112.531 473.208 104.202 462.949 104.202C452.69 104.202 444.373 112.531 444.373 122.806C444.373 133.082 452.69 141.411 462.949 141.411Z" fill="#FFB8B8"/>
<path d="M490.989 251.955H434.985L435.053 251.519C435.153 250.867 445.034 186.042 437.747 164.835C437.015 162.751 437.08 160.469 437.927 158.43C438.775 156.39 440.345 154.737 442.337 153.788H442.337C452.753 148.875 472.747 142.826 489.622 157.507C492.106 159.702 494.045 162.447 495.287 165.523C496.528 168.598 497.038 171.921 496.777 175.229L490.989 251.955Z" fill="#6C63FF"/>
<path d="M445.742 195.622L420.528 190.499L432.347 162.45C433.054 159.733 434.808 157.408 437.225 155.985C439.641 154.562 442.523 154.157 445.237 154.859C447.951 155.56 450.277 157.312 451.703 159.729C453.13 162.145 453.542 165.03 452.847 167.75L445.742 195.622Z" fill="#6C63FF"/>
<path d="M478.033 205.135L476.518 170.334C475.368 163.793 479.107 157.608 484.858 156.597C490.61 155.59 496.227 160.127 497.381 166.717L503.079 199.235L478.033 205.135Z" fill="#6C63FF"/>
<path d="M489.126 247.789C498.137 282.161 499.12 325.863 496.689 373.532L484.588 372.017L462.654 281.119L450.553 373.532L436.939 372.775C432.872 322.758 428.912 279.819 435.427 251.577L489.126 247.789Z" fill="#2F2E41"/>
<path d="M475.189 137.185C471.723 140.882 465.287 138.897 464.836 133.846C464.801 133.454 464.803 133.06 464.844 132.668C465.077 130.431 466.367 128.399 466.058 126.037C465.988 125.449 465.769 124.889 465.423 124.409C462.661 120.706 456.179 126.066 453.573 122.713C451.974 120.657 453.853 117.42 452.627 115.123C451.008 112.09 446.214 113.586 443.207 111.925C439.862 110.077 440.063 104.937 442.264 101.811C444.95 97.9978 449.658 95.9632 454.308 95.67C458.957 95.3768 463.575 96.6356 467.916 98.3299C472.848 100.255 477.739 102.915 480.774 107.259C484.465 112.541 484.82 119.642 482.974 125.819C481.851 129.576 478.019 134.166 475.189 137.185Z" fill="#2F2E41"/>
<path d="M635.297 393.625H76.9087C76.6703 393.624 76.4419 393.529 76.2736 393.36C76.1053 393.191 76.0107 392.962 76.0107 392.723C76.0107 392.484 76.1053 392.255 76.2736 392.086C76.4419 391.917 76.6703 391.822 76.9087 391.821H635.297C635.535 391.822 635.763 391.917 635.932 392.086C636.1 392.255 636.195 392.484 636.195 392.723C636.195 392.962 636.1 393.191 635.932 393.36C635.763 393.529 635.535 393.624 635.297 393.625Z" fill="#3F3D56"/>
<path d="M354.715 310.95H256.393C255.098 310.957 253.853 310.449 252.932 309.538C252.01 308.627 251.487 307.387 251.477 306.09V86.2898C251.487 84.9929 252.01 83.753 252.932 82.842C253.853 81.931 255.098 81.4233 256.393 81.4302H354.715C356.01 81.4233 357.255 81.931 358.176 82.842C359.098 83.753 359.621 84.9929 359.631 86.2898V306.09C359.621 307.387 359.098 308.627 358.176 309.538C357.255 310.449 356.01 310.957 354.715 310.95Z" fill="white"/>
<path d="M359.631 152.551H251.477V154.066H359.631V152.551Z" fill="#CCCCCC"/>
<path d="M360.009 238.988H251.855V240.503H360.009V238.988Z" fill="#CCCCCC"/>
<path d="M287.024 81.4302H285.511V311.707H287.024V81.4302Z" fill="#CCCCCC"/>
<path d="M324.84 81.4302H323.328V311.707H324.84V81.4302Z" fill="#CCCCCC"/>
</g>
<defs>
<clipPath id="clip0_565_2041">
<rect width="658" height="394" fill="white"/>
</clipPath>
</defs>
</svg>
