<svg width="96" height="96" viewBox="0 0 96 96" fill="none" xmlns="http://www.w3.org/2000/svg">
<path fill-rule="evenodd" clip-rule="evenodd" d="M38.4492 34.9299L38.433 34.9105L38.4168 34.8944L38.4007 34.8815L38.3877 34.8718L38.3716 34.8621L38.3587 34.8556L38.3457 34.8524H38.3393H38.3328H38.3263H38.3199L38.3134 34.8556H38.3069L38.3005 34.8588L38.294 34.8621L38.2811 34.8718L38.2714 34.8815L38.2585 34.8944L38.2488 34.9105L38.2391 34.9299L38.071 56.3103L38.0872 56.7499L38.1098 56.9535L38.1389 57.1442L38.1809 57.322L38.2294 57.49L38.2876 57.6452L38.3522 57.7906L38.4298 57.9199L38.5138 58.0427L38.6043 58.1526L38.7077 58.2496L38.8176 58.3336L38.9372 58.408L39.0665 58.4694L39.2055 58.5211L39.5642 58.6342L40.0587 58.7667L41.4647 59.0867L41.4776 59.1093L41.4938 59.132L41.5035 59.161L41.5164 59.1901L41.5261 59.2257L41.5358 59.2645L41.552 59.3485L41.5617 59.4487L41.5681 59.5618V59.6879V59.8301L41.552 60.0984L41.5423 60.2115L41.5294 60.3117L41.5164 60.3989L41.5003 60.4733L41.4841 60.5315L41.4744 60.5541L41.4647 60.5767L35.8958 60.4216L32.5473 60.4991L30.3721 60.5767L30.3398 60.5088L30.3139 60.4313L30.2913 60.3472L30.2719 60.2535L30.2525 60.1533L30.2396 60.0466L30.2234 59.8042L30.2202 59.6814L30.2234 59.5683L30.2299 59.4616L30.2396 59.3679L30.2558 59.2839L30.2752 59.2095L30.2881 59.174L30.301 59.1416L30.3139 59.1126L30.3301 59.0867L31.7813 58.854L32.2823 58.757L32.6314 58.6762L32.8511 58.5954L33.0515 58.5049L33.2358 58.4047L33.3974 58.2948L33.4749 58.2367L33.5428 58.1785L33.6075 58.1171L33.6689 58.0524L33.7238 57.9878L33.7755 57.9167L33.824 57.8488L33.866 57.7745L33.9404 57.6129L34.0082 57.4254L34.0697 57.2121L34.1214 56.9729L34.1666 56.7046L34.2054 56.4105L34.2636 55.7447L34.5965 44.0768L34.7225 32.7192L34.7031 32.3281L34.6805 32.1471L34.6482 31.9758L34.6062 31.811L34.5577 31.659L34.4963 31.5168L34.4284 31.3843L34.3508 31.2583L34.2636 31.1451L34.1666 31.0417L34.0632 30.948L33.9468 30.8607L33.824 30.7864L33.6915 30.7185L33.5525 30.6636L33.3036 30.6086L32.7671 30.4955L30.8311 30.0979L30.8149 30.0753L30.7988 30.0527L30.7858 30.0236L30.7729 29.9945L30.7632 29.959L30.7535 29.9202L30.7341 29.8329L30.7212 29.7327L30.7115 29.6196L30.705 29.4935V29.3513V29.2123L30.7115 29.0863L30.7212 28.9764L30.7341 28.8827L30.7535 28.8051L30.7632 28.7695L30.7729 28.7405L30.7858 28.7146L30.7988 28.692L30.8149 28.6758L30.8214 28.6661L30.8311 28.6597L33.6786 28.7372L38.2391 28.8116L38.2455 28.831L38.2649 28.873L38.3425 29.012L38.6334 29.5162L39.6677 31.2712L42.8545 36.6106L46.1997 42.2216L48.1132 45.4989L48.9503 46.9275L49.2509 47.4382L51.4487 51.1777L51.885 51.9341L52.0725 52.2864L52.2406 52.6322L52.386 52.9748L52.5088 53.3239L52.6155 53.6826L52.6995 54.0575L52.7512 54.4131L52.7835 54.7524L52.7965 55.0789L52.7932 55.3956L52.7706 55.7124L52.7286 56.0259L52.6769 56.3426L52.609 56.6659L52.567 56.821L52.5153 56.9729L52.3925 57.28L52.2406 57.5741L52.0693 57.8553L51.8818 58.1171L51.6911 58.353L51.5004 58.5631L51.3194 58.7376L51.258 58.7829L51.1901 58.8217L51.1158 58.8572L51.0317 58.8895L50.9412 58.9154L50.8475 58.938L50.6471 58.9736L50.4338 58.9962L50.2205 59.0091L49.8165 59.0156V56.2748L49.9878 56.1875L50.1429 56.0841L50.2851 55.9645L50.4112 55.8287L50.5211 55.6833L50.6116 55.5249L50.6891 55.3569L50.7441 55.1791L50.7829 54.9949L50.8055 54.8042V54.607L50.7861 54.4066L50.7473 54.203L50.6891 53.9994L50.6083 53.7957L50.5081 53.5921L50.4467 53.4887L50.4112 53.4337L47.9063 49.4906L43.8953 43.3399L40.1492 37.6061L38.9307 35.7218L38.5849 35.1691L38.4879 35.0075L38.4492 34.9299ZM49.8165 59.0188V56.2748V59.0188ZM49.5999 31.5976L49.6032 42.3799L48.2877 44.6263L46.9593 42.3799L47.0175 31.5976L46.9852 30.6442L46.969 30.321L46.9496 30.1012L46.9108 29.765L46.885 29.6131L46.8591 29.4741L46.8235 29.3449L46.788 29.2317L46.746 29.1251L46.7007 29.0346L46.6749 28.9926L46.6458 28.9505L46.6135 28.9118L46.5779 28.8762L46.5424 28.8407L46.5003 28.8051L46.4551 28.7728L46.4098 28.7405L46.3064 28.6823L46.1901 28.6306L46.0608 28.5853L45.9218 28.5465L45.786 28.5013L45.6406 28.4625L45.4758 28.4205L45.2948 28.3849L44.8875 28.3171L44.4221 28.2589L44.4156 28.2524L44.4092 28.2492L44.3995 28.2362L44.3898 28.2169L44.3833 28.1975L44.3736 28.1781L44.3671 28.1522L44.3542 28.0908L44.3445 28.0197L44.3348 27.9357L44.3316 27.8419V27.7353V27.6286L44.3381 27.5316L44.3478 27.4476L44.3607 27.3765L44.3671 27.3442L44.3768 27.3183L44.3865 27.2925L44.3995 27.2698L44.4092 27.2505L44.4221 27.2343L44.435 27.2214L44.4415 27.2149L44.4512 27.2117L46.2159 27.2634L48.5398 27.3183L50.7182 27.2634L52.3343 27.2117L52.3375 27.2149L52.3407 27.2181L52.344 27.2214L52.3504 27.2278L52.3569 27.2375L52.3634 27.2505L52.3698 27.2634L52.3795 27.2795L52.386 27.2989L52.3925 27.3183V28.2589L51.8075 28.3494L51.3259 28.4399L50.9412 28.5271L50.7861 28.5724L50.6568 28.6176L50.5081 28.6661L50.3724 28.7243L50.2528 28.7889L50.1979 28.8245L50.1462 28.8633L50.0944 28.9021L50.0492 28.9441L50.0072 28.9861L49.9684 29.0313L49.9328 29.0798L49.9005 29.1283L49.8714 29.18L49.8488 29.2317L49.8035 29.3481L49.7615 29.4774L49.726 29.6196L49.6969 29.7747L49.671 29.946L49.6516 30.127L49.629 30.5343L49.5999 31.5976ZM49.6064 59.8947L49.629 60.7351L49.6516 61.1423L49.671 61.3233L49.6969 61.4946L49.726 61.6498L49.7615 61.792L49.8035 61.9213L49.8488 62.0376L49.8714 62.0893L49.9005 62.141L49.9328 62.1895L49.9684 62.238L50.0072 62.2833L50.0492 62.3253L50.0944 62.3673L50.1462 62.4061L50.1979 62.4449L50.2528 62.4804L50.3724 62.5451L50.5081 62.6032L50.6568 62.6517L50.7861 62.697L50.9412 62.7422L51.3259 62.8327L51.8075 62.92L52.3925 63.0105V63.951L52.386 63.9704L52.3795 63.9898L52.3698 64.006L52.3634 64.0189L52.3569 64.0318L52.3504 64.0448L52.3407 64.0545L52.3375 64.0577L52.3343 64.0609L50.7182 64.006L48.5398 63.951L46.2159 64.006L44.4512 64.0609L44.4415 64.0545L44.435 64.0512L44.4221 64.0383L44.4092 64.0189L44.3995 63.9995L44.3865 63.9769L44.3768 63.9543L44.3671 63.9252L44.3607 63.8928L44.3478 63.8217L44.3381 63.7377L44.3316 63.6407V63.5341V63.4274L44.3348 63.3337L44.3445 63.2497L44.3542 63.1786L44.3671 63.1171L44.3736 63.0913L44.3833 63.0719L44.3898 63.0525L44.3995 63.0331L44.4092 63.0202L44.4156 63.0169L44.4221 63.0105L44.8875 62.9523L45.2948 62.8844L45.4758 62.8489L45.6406 62.8069L45.786 62.7681L45.9218 62.7228L46.0608 62.684L46.1901 62.6388L46.3064 62.5871L46.4098 62.5289L46.4551 62.4966L46.5003 62.4643L46.5424 62.4287L46.5779 62.3931L46.6135 62.3576L46.6458 62.3188L46.6749 62.2768L46.7007 62.2348L46.746 62.1443L46.788 62.0376L46.8235 61.9245L46.8591 61.7952L46.885 61.6562L46.9108 61.5043L46.9496 61.1682L46.9625 61.0098L46.9787 60.7933L47.0045 60.1759L47.066 53.4208L48.2877 51.1777L49.6032 53.4208V59.4552L49.6064 59.8947ZM48.6594 45.2565L53.7015 36.6527L56.4875 31.6429L57.3925 29.8297L57.6543 29.2059L57.7287 28.9796L57.7642 28.8116L62.3247 28.7372L65.1722 28.6597L65.1787 28.6661L65.1851 28.6758L65.2013 28.692L65.2142 28.7146L65.2272 28.7405L65.2369 28.7695L65.2466 28.8051L65.2659 28.8827L65.2789 28.9764L65.2886 29.0863L65.295 29.2123L65.2983 29.3513L65.295 29.4935L65.2886 29.6196L65.2789 29.7327L65.2659 29.8329L65.2466 29.9202L65.2369 29.959L65.2272 29.9945L65.2142 30.0236L65.2013 30.0527L65.1851 30.0753L65.1722 30.0979L63.2329 30.4955L62.6964 30.6086L62.4508 30.6636L62.3086 30.7185L62.1761 30.7864L62.0532 30.8607L61.9369 30.948L61.8334 31.0417L61.7365 31.1451L61.6492 31.2583L61.5716 31.3843L61.5038 31.5168L61.4456 31.659L61.3939 31.811L61.3519 31.9758L61.3195 32.1471L61.2969 32.3281L61.2808 32.7192L61.4068 44.0768L61.7397 55.7447L61.7947 56.4105L61.8334 56.7046L61.8787 56.9729L61.9336 57.2121L61.9918 57.4254L62.0597 57.6129L62.1373 57.7745L62.1761 57.8488L62.2245 57.9167L62.2762 57.9878L62.3312 58.0524L62.3926 58.1171L62.4572 58.1785L62.5284 58.2367L62.6027 58.2948L62.7643 58.4047L62.9485 58.5049L63.1489 58.5954L63.3719 58.6762L63.7178 58.757L64.2187 58.854L65.6732 59.0867L65.6861 59.1126L65.7023 59.1416L65.7152 59.174L65.7249 59.2095L65.7443 59.2839L65.7605 59.3679L65.7734 59.4616L65.7799 59.5683V59.6814V59.8042L65.7605 60.0466L65.7475 60.1533L65.7281 60.2535L65.7087 60.3472L65.6861 60.4313L65.6603 60.5088L65.6312 60.5767L63.456 60.4991L60.1075 60.4216L54.5386 60.5767L54.5257 60.5541L54.516 60.5315L54.4998 60.4733L54.4836 60.3989L54.4707 60.3117L54.4578 60.2115L54.4481 60.0984L54.4352 59.8301L54.4319 59.6879V59.5618L54.4384 59.4487L54.4481 59.3485L54.4642 59.2645L54.4739 59.2257L54.4836 59.1901L54.4966 59.161L54.5095 59.132L54.5224 59.1093L54.5386 59.0867L55.9413 58.7667L56.4358 58.6342L56.7978 58.5211L56.9336 58.4694L57.0629 58.408L57.1824 58.3336L57.2923 58.2496L57.3958 58.1526L57.4863 58.0427L57.5703 57.9199L57.6479 57.7906L57.7125 57.6452L57.7707 57.49L57.8192 57.322L57.8612 57.1442L57.8903 56.9535L57.9129 56.7499L57.9323 56.3103L57.7642 34.9299L57.7513 34.9105L57.7416 34.8944L57.7287 34.8815L57.719 34.8718L57.706 34.8621L57.6996 34.8588L57.6931 34.8556H57.6867L57.6802 34.8524H57.6737H57.6673H57.6608H57.6543L57.6414 34.8556L57.6285 34.8621L57.6123 34.8718L57.5994 34.8815L57.5832 34.8944L57.5671 34.9105L57.5541 34.9299L49.8488 47.2831L48.6594 45.2565ZM46.7363 59.0156V56.2748L46.5553 56.181L46.3937 56.0647L46.2515 55.9322L46.1286 55.777L46.022 55.609L45.9379 55.428L45.8733 55.234L45.8248 55.0304L45.799 54.8203L45.7957 54.6005L45.8119 54.3808L45.8474 54.1577L45.9056 53.9347L45.9864 53.7117L46.0899 53.4952L46.2159 53.2818L47.8804 50.4925L46.6943 48.4725L45.1719 51.0129L44.4479 52.4221L44.2831 52.7841L44.1377 53.1493L44.0181 53.521L43.9276 53.9024L43.8726 54.2579L43.8403 54.5973L43.8274 54.9237L43.8338 55.2437L43.8565 55.5572L43.8953 55.8708L43.9502 56.1875L44.0213 56.5107L44.0601 56.6659L44.1118 56.821L44.2346 57.1248L44.3865 57.4222L44.5578 57.7034L44.7421 57.9652L44.9328 58.2011L45.1235 58.4112L45.3077 58.5857L45.3626 58.6342L45.4305 58.6762L45.5016 58.7215L45.5792 58.7603L45.7537 58.8346L45.9412 58.896L46.1383 58.9477L46.342 58.9833L46.5424 59.0091L46.7363 59.0156Z" fill="url(#paint0_linear_224_272)"/>
<path fill-rule="evenodd" clip-rule="evenodd" d="M53.0355 84.9983L53.808 84.8851L54.5546 84.8108L54.9101 84.7882L55.2495 84.7785L55.5695 84.7817L55.8636 84.7979L56.3322 84.8658L56.8041 84.9756L57.2695 85.1243L57.735 85.3053L58.1907 85.5186L58.6335 85.7578L59.0601 86.0229L59.4674 86.304L59.8423 86.6079L60.1978 86.9214L60.5307 87.2414L60.8313 87.5646L61.0996 87.891L61.3291 88.2142L61.5198 88.5342L61.5973 88.6893L61.6652 88.8445L60.9218 89.1063L60.117 89.339L59.2702 89.5394L58.3943 89.7107L57.5023 89.8464L56.6134 89.9434L55.7408 89.9983L54.9004 90.0145L54.5223 89.9983L54.1409 89.9402L53.7595 89.8432L53.3813 89.7107L53.0064 89.5458L52.6379 89.3519L52.2792 89.1257L51.9333 88.8768L51.5972 88.6021L51.2804 88.3047L50.9799 87.9912L50.7019 87.6583L50.4466 87.3125L50.2171 86.9537L50.0167 86.5885L49.8454 86.2135L49.7711 86.0552L49.6935 85.9162L49.6127 85.7966L49.5286 85.6899L49.2281 85.3473L49.1699 85.2665L49.1246 85.1793L49.1052 85.1373L49.0923 85.0888L49.0794 85.0403L49.0729 84.9853L49.0762 84.8722L49.0955 84.7397L49.1376 84.5878L49.2022 84.4133L49.6482 83.3758L50.1557 82.2898L50.7116 81.2426L50.9993 80.761L51.2934 80.3214L51.6295 79.8948L52.0044 79.4778L52.8545 78.6666L53.7918 77.9038L54.7808 77.2024L55.7698 76.5722L56.7169 76.0292L57.5766 75.5831L58.307 75.2502L57.0304 77.9103L56.2708 79.3744L55.3885 80.887L55.201 81.1682L54.9941 81.4527L54.7679 81.7338L54.5223 82.015L54.2605 82.293L53.9857 82.5677L53.391 83.1043L52.7123 83.6505L52.0949 84.09L51.4582 84.4973L50.731 84.9369L49.5351 85.6576L50.5468 85.4799L53.0355 84.9983ZM61.4066 81.7242L62.0918 81.472L62.7577 81.2555L63.0776 81.1682L63.3815 81.0907L63.6723 81.0325L63.9438 80.9905L64.3802 80.9614L64.8262 80.9711L65.2787 81.0163L65.728 81.0939L66.1772 81.1973L66.62 81.3298L67.0531 81.4882L67.4701 81.666L67.8612 81.8696L68.2361 82.0861L68.5916 82.3124L68.9181 82.5483L69.2154 82.794L69.4804 83.0428L69.7067 83.295L69.8037 83.421L69.8909 83.5503L69.2574 83.9317L68.5625 84.3001L67.8256 84.646L67.0564 84.9692L66.2677 85.2633L65.4759 85.5251L64.6905 85.7449L63.9277 85.9227L63.5818 85.9808L63.2263 86.0002L62.8643 85.9873L62.4991 85.942L62.1306 85.8645L61.7622 85.7578L61.4002 85.6221L61.0414 85.4605L60.6923 85.2762L60.353 85.0694L60.0298 84.8399L59.7227 84.5943L59.4318 84.3292L59.1668 84.048L58.9212 83.7539L58.7046 83.4469L58.6109 83.3176L58.5171 83.2045L58.4234 83.1107L58.3297 83.0299L58 82.7746L57.9354 82.7132L57.8772 82.6453L57.8546 82.6065L57.8319 82.5677L57.8158 82.5225L57.7996 82.4772L57.7834 82.3706L57.7802 82.2477L57.7931 82.1023L57.8222 81.931L58.0549 80.9032L58.3394 79.814L58.6723 78.7538L58.8565 78.2593L59.0504 77.8036L59.2864 77.3511L59.5579 76.8986L60.1946 75.9969L60.9218 75.121L61.704 74.2935L62.4991 73.5275L63.2683 72.852L63.9794 72.2799L64.587 71.8339L63.8663 74.5004L63.4202 75.9807L62.8675 77.5256L62.7447 77.8198L62.6025 78.1171L62.4409 78.4177L62.2664 78.7183L62.0725 79.0221L61.8656 79.3259L61.4131 79.9303L60.8863 80.5606L60.3982 81.081L59.8876 81.5722L59.2993 82.112L58.3329 82.9976L59.2217 82.6388L61.4066 81.7242ZM68.7177 78.13L69.3382 77.7325L69.9491 77.3705L70.2432 77.2121L70.5309 77.0699L70.8024 76.9471L71.0609 76.8469L71.4811 76.7208L71.9207 76.6271L72.3667 76.5689L72.8257 76.5431H73.2846L73.7436 76.5754L74.1961 76.6303L74.6389 76.7112L75.0623 76.821L75.4695 76.9503L75.8574 77.0925L76.2226 77.2509L76.562 77.4222L76.869 77.6064L77.1373 77.8036L77.2569 77.9038L77.3668 78.0105L76.8206 78.5244L76.2129 79.0415L75.5568 79.5457L74.8684 80.037L74.1541 80.5024L73.4268 80.9355L72.7029 81.3266L71.9918 81.6724L71.6653 81.805L71.3195 81.9051L70.964 81.973L70.5955 82.0118L70.2206 82.0183L69.8424 81.9956L69.461 81.9472L69.0797 81.8696L68.7015 81.7662L68.333 81.6401L67.971 81.4914L67.622 81.3169L67.2891 81.123L66.9723 80.9097L66.6782 80.6769L66.4067 80.4248L66.2904 80.3182L66.1772 80.2309L66.0641 80.1598L65.9607 80.1016L65.5858 79.9271L65.5114 79.8819L65.4435 79.8269L65.4112 79.7946L65.3854 79.7623L65.3595 79.7235L65.3369 79.6815L65.3143 79.633L65.2981 79.5813L65.269 79.4617L65.2528 79.3162L65.2496 79.1417L65.2819 78.0816L65.353 76.9568L65.4726 75.8417L65.5567 75.3181L65.6601 74.8268L65.8023 74.3323L65.9833 73.8281L66.4326 72.8035L66.9756 71.7854L67.58 70.7964L68.2102 69.872L68.8373 69.0349L69.419 68.3174L69.9297 67.7453L69.739 70.512L69.5839 72.0602L69.3415 73.6956L69.2768 74.0091L69.1928 74.3323L69.0958 74.6652L68.9795 75.0014L68.8502 75.3407L68.708 75.6833L68.3815 76.375L67.9872 77.1087L67.6091 77.7293L67.205 78.324L66.7299 78.9866L65.9542 80.0693L66.7558 79.5199L68.7177 78.13ZM74.7746 72.448L75.3209 72.0084L75.8606 71.6077L76.3745 71.2651L76.6169 71.1228L76.8496 71L77.2343 70.8384L77.635 70.7059L78.0488 70.6057L78.4722 70.5314L78.902 70.4861L79.3351 70.4667L79.7618 70.47L80.1819 70.499L80.586 70.5605L80.9803 70.638L81.3552 70.7318L81.714 70.8384L82.0436 70.9645L82.3475 71.1034L82.6157 71.2586L82.7385 71.3426L82.8484 71.4299L82.383 71.9697L81.8626 72.5126L81.2938 73.0556L80.6926 73.5857L80.0688 74.0964L79.4289 74.578L78.7857 75.0175L78.1522 75.4151L77.8581 75.5734L77.5445 75.7027L77.2181 75.8029L76.8787 75.8773L76.5264 75.9225L76.1709 75.9419L75.8089 75.9354L75.4469 75.9031L75.0849 75.8482L74.7294 75.7674L74.3771 75.6639L74.0377 75.5379L73.708 75.3924L73.3913 75.2244L73.0972 75.0369L72.8192 74.8301L72.6996 74.7428L72.5865 74.6717L72.4766 74.6167L72.3732 74.5747L72.0112 74.4519L71.9336 74.4164L71.8657 74.3711L71.8366 74.3453L71.8043 74.3162L71.7785 74.2838L71.7526 74.2451L71.73 74.203L71.7074 74.1578L71.6718 74.0479L71.646 73.9121L71.6266 73.7505L71.5619 72.7551L71.5264 71.6949L71.5393 70.6445L71.5716 70.1467L71.6233 69.6781L71.7138 69.1997L71.8366 68.7085L72.1663 67.7065L72.5833 66.6949L73.0616 65.7091L73.5691 64.7782L74.0765 63.9314L74.5581 63.1977L74.9847 62.6095L75.0526 65.2178L75.0461 66.6819L74.9621 68.2366L74.9298 68.5372L74.8813 68.8474L74.8199 69.1674L74.7423 69.4906L74.6518 69.8235L74.5484 70.1597L74.306 70.8416L74.0022 71.5689L73.7048 72.1862L73.3784 72.7841L72.9937 73.4532L72.3667 74.5456L73.0648 73.9477L73.9181 73.1946L74.3448 72.8165L74.7746 72.448ZM79.9589 65.6735L80.3953 65.1111L80.8316 64.5843L81.2615 64.1221L81.4651 63.9217L81.6655 63.7439L82.0049 63.4886L82.3669 63.2591L82.7482 63.0555L83.1458 62.8777L83.553 62.7258L83.9667 62.5998L84.3837 62.4963L84.8006 62.4188L85.2079 62.3735L85.6054 62.3477L85.99 62.3444L86.3617 62.3606L86.7108 62.3994L87.034 62.4608L87.1859 62.4996L87.3314 62.5448L87.4671 62.5933L87.5932 62.6515L87.257 63.2914L86.8659 63.954L86.4296 64.6231L85.961 65.2889L85.46 65.9418L84.9428 66.572L84.4128 67.1635L83.8827 67.7097L83.6306 67.9392L83.3526 68.1428L83.0553 68.3238L82.7418 68.479L82.4089 68.6115L82.0663 68.7214L81.714 68.8054L81.3552 68.8668L80.99 68.9024L80.6247 68.9153L80.2627 68.9024L79.904 68.8668L79.5517 68.8087L79.2123 68.7246L78.8826 68.618L78.5691 68.4854L78.4366 68.4305L78.3106 68.3917L78.191 68.3659L78.0811 68.3497L77.6997 68.3206L77.6189 68.3044L77.5445 68.2786L77.509 68.2624L77.4734 68.2398L77.4379 68.2172L77.4056 68.1849L77.3732 68.1525L77.3442 68.1105L77.286 68.0136L77.2278 67.8907L77.1761 67.7356L76.8981 66.7854L76.6363 65.764L76.423 64.7362L76.3487 64.2417L76.3002 63.773L76.284 63.285L76.297 62.7775L76.4004 61.7206L76.5911 60.6314L76.8432 59.5551L77.1341 58.5209L77.4476 57.5674L77.7579 56.7335L78.0455 56.0548L78.6726 58.5758L78.9796 60.0012L79.2349 61.5332L79.2673 61.8338L79.2899 62.1473L79.2963 62.4737L79.2899 62.8099L79.2446 63.5048L79.1574 64.2288L79.0184 65.0109L78.86 65.6897L78.6726 66.3522L78.4431 67.0989L78.0681 68.3238L78.6208 67.5643L79.9589 65.6735ZM83.3882 56.9921L83.6726 56.323L83.9667 55.6928L84.2673 55.1207L84.416 54.8686L84.5647 54.6423L84.8297 54.2997L85.1238 53.9765L85.4406 53.6727L85.78 53.3883L86.1355 53.1232L86.5039 52.8841L86.8821 52.6643L87.2667 52.4704L87.6481 52.312L88.0263 52.173L88.398 52.0599L88.7567 51.9694L89.1026 51.9047L89.4322 51.8724L89.5874 51.866H89.7361L89.8815 51.8756L90.0172 51.895L89.8492 52.6093L89.6326 53.3592L89.3773 54.1284L89.0832 54.9074L88.76 55.6798L88.4141 56.4361L88.0489 57.1569L87.6675 57.8357L87.48 58.1298L87.2635 58.4045L87.0211 58.6631L86.7561 58.9055L86.4684 59.1253L86.1646 59.3289L85.8446 59.5099L85.5149 59.6715L85.1723 59.8105L84.8232 59.9268L84.4709 60.0206L84.1154 60.0884L83.7631 60.1304L83.4141 60.1466L83.0682 60.1369L82.7353 60.1014L82.5931 60.0852H82.4606L82.341 60.0917L82.2311 60.1078L81.8562 60.1886L81.7754 60.1983L81.6946 60.1951L81.6558 60.1886L81.617 60.1789L81.5782 60.1628L81.5394 60.1466L81.5006 60.1208L81.4619 60.0917L81.3811 60.0141L81.297 59.9107L81.2098 59.7781L80.712 58.941L80.2078 58.0296L79.7521 57.0987L79.5582 56.6462L79.3965 56.2067L79.264 55.7412L79.1509 55.2467L78.9925 54.1963L78.9117 53.0909L78.8923 51.9791L78.9214 50.8996L78.9925 49.8911L79.0863 48.9958L79.1994 48.2589L80.4179 50.5149L81.0611 51.7981L81.6816 53.204L81.7883 53.4852L81.882 53.7826L81.9693 54.0929L82.0469 54.4193L82.1147 54.7587L82.1729 55.1045L82.2634 55.8285L82.3216 56.6236L82.3345 57.3217L82.3151 58.0166L82.2764 58.8021L82.2117 60.0884L82.5575 59.1996L83.3882 56.9921ZM84.639 47.1471L84.7263 46.4198L84.8394 45.7217L84.9687 45.0818L85.043 44.7941L85.1238 44.5291L85.2854 44.1186L85.4761 43.7146L85.6992 43.3203L85.948 42.9421L86.2163 42.5769L86.5039 42.2278L86.8045 41.9014L87.118 41.5943L87.438 41.3228L87.7645 41.0707L88.0877 40.8412L88.4109 40.6408L88.7244 40.4728L89.0282 40.3338L89.3191 40.2336L89.4581 40.198L89.5938 40.1722L89.6262 40.9091L89.6229 41.6945L89.5874 42.5122L89.5195 43.3493L89.4193 44.1897L89.2933 45.0203L89.1381 45.8251L88.9571 46.5944L88.8569 46.9338L88.7244 47.2667L88.5628 47.5931L88.3753 47.9099L88.162 48.2137L87.9261 48.5046L87.6707 48.7793L87.396 49.0379L87.1051 49.2803L86.8045 49.5L86.491 49.7037L86.171 49.8814L85.8446 50.0333L85.5149 50.1594L85.182 50.2596L84.8523 50.3307L84.7134 50.3598L84.5873 50.4018L84.4742 50.4471L84.3708 50.4988L84.0378 50.6927L83.9603 50.7282L83.8859 50.7476L83.8472 50.7541L83.8084 50.7573H83.7663L83.7243 50.7509L83.6791 50.7379L83.6338 50.725L83.5369 50.6765L83.427 50.6022L83.3074 50.5052L82.6028 49.862L81.8756 49.151L81.5233 48.7825L81.1871 48.4076L80.8801 48.0327L80.6054 47.6642L80.35 47.2602L80.1108 46.8239L79.6777 45.8672L79.2996 44.8394L78.9796 43.7825L78.7146 42.7385L78.5109 41.7527L78.3623 40.8671L78.2685 40.1269L80.043 41.8981L81.0061 42.9195L81.979 44.0669L82.1568 44.2996L82.3281 44.5549L82.4961 44.8264L82.6577 45.1141L82.8161 45.4147L82.9648 45.7314L83.246 46.394L83.5175 47.1341L83.7179 47.8L83.8892 48.469L84.0637 49.2318L84.3514 50.4826L84.4419 49.5259L84.639 47.1471ZM83.6823 37.357L83.5854 36.6298L83.5175 35.9252L83.4852 35.2723V34.9717L83.4949 34.6938L83.5466 34.251L83.6306 33.8082L83.747 33.3654L83.8892 32.9258L84.0572 32.4959L84.2479 32.0758L84.4548 31.6717L84.6778 31.2839L84.9202 30.9251L85.1691 30.589L85.4244 30.2755L85.683 29.9878L85.9416 29.7325L86.2001 29.5095L86.4555 29.3285L86.5815 29.2541L86.7043 29.1895L86.9209 29.8876L87.1148 30.6439L87.2829 31.4423L87.4283 32.2665L87.5447 33.1036L87.6287 33.9407L87.6837 34.7649L87.7031 35.5567L87.6934 35.9123L87.6481 36.271L87.5738 36.6298L87.4736 36.9886L87.3443 37.3441L87.1892 37.6932L87.0114 38.0325L86.811 38.3622L86.5944 38.679L86.3585 38.9828L86.1096 39.2672L85.8446 39.5322L85.5666 39.7746L85.2822 39.9944L84.9881 40.1884L84.6875 40.3532L84.5614 40.4243L84.4483 40.4986L84.3546 40.5794L84.2673 40.657L83.9958 40.9447L83.9312 40.9996L83.8633 41.0416L83.8245 41.0578L83.789 41.0739L83.747 41.0836L83.7049 41.0901L83.6597 41.0933L83.6112 41.0901L83.5045 41.0739L83.385 41.0352L83.2428 40.9738L82.4056 40.5633L81.5265 40.0914L81.0966 39.8393L80.6797 39.5775L80.2886 39.3092L79.9331 39.0345L79.5872 38.721L79.2479 38.3719L78.5885 37.58L77.9679 36.7009L77.3926 35.7798L76.8787 34.8521L76.4327 33.9633L76.0675 33.1553L75.7927 32.4701L77.9421 33.653L79.1283 34.3544L79.7359 34.7455L80.3532 35.1721L80.5827 35.3467L80.809 35.5406L81.0385 35.7507L81.2679 35.9801L81.4942 36.2258L81.7172 36.4844L82.1568 37.0403L82.6028 37.6738L82.9616 38.2523L83.2912 38.847L83.6532 39.529L84.2415 40.6505L84.0896 39.7003L83.6823 37.357ZM79.8878 27.7932L79.6454 27.1662L79.4353 26.5521L79.264 25.9735L79.1994 25.7053L79.1477 25.4532L79.0992 25.0427L79.0798 24.6225L79.0895 24.1959L79.1218 23.7692L79.18 23.3394L79.2608 22.916L79.361 22.5023L79.4773 22.0983L79.6163 21.7169L79.7682 21.3516L79.9298 21.0058L80.0979 20.6858L80.2757 20.3885L80.4599 20.1267L80.6506 19.8972L80.7476 19.8002L80.8445 19.7097L81.1871 20.2818L81.5233 20.9121L81.8465 21.5843L82.1535 22.2889L82.438 23.0129L82.6933 23.7402L82.9195 24.4642L83.107 25.1688L83.1749 25.492L83.2104 25.8249L83.2234 26.1642L83.2072 26.5133L83.1684 26.8624L83.1038 27.2147L83.0165 27.5637L82.9098 27.9096L82.7838 28.2489L82.6351 28.5786L82.4735 28.8986L82.2925 29.2024L82.0986 29.4901L81.8885 29.7583L81.6655 30.004L81.4328 30.227L81.3326 30.324L81.2518 30.4177L81.1807 30.5114L81.1225 30.6052L80.9383 30.9316L80.893 30.9962L80.8413 31.0544L80.8122 31.077L80.7799 31.0997L80.7476 31.1191L80.712 31.1352L80.67 31.1481L80.628 31.1578L80.5278 31.1708L80.4114 31.1675L80.2724 31.1481L79.4321 30.9898L78.5433 30.7894L78.1005 30.6698L77.6706 30.5405L77.2634 30.3983L76.8852 30.2432L76.507 30.0492L76.1289 29.8198L75.3693 29.2768L74.6227 28.6465L73.9117 27.9613L73.2523 27.2599L72.6608 26.5747L72.1599 25.9445L71.7655 25.3982L73.9472 25.9154L75.1592 26.2483L75.7895 26.4454L76.4327 26.6717L76.6751 26.7719L76.924 26.8882L77.1729 27.0207L77.4282 27.1662L77.6803 27.3278L77.9389 27.5056L78.1942 27.693L78.4495 27.8934L78.9861 28.3491L79.4321 28.779L79.8587 29.2283L80.3274 29.7486L81.0966 30.6052L80.7573 29.7907L79.8878 27.7932ZM74.4999 20.2559L74.083 19.7453L73.7016 19.2378L73.3719 18.7498L73.2297 18.5171L73.1101 18.2941L72.942 17.9224L72.7998 17.5345L72.6802 17.1273L72.5865 16.7071L72.5154 16.2837L72.4637 15.8538L72.4346 15.4272L72.4281 15.0038L72.4475 14.5933L72.4831 14.1958L72.5315 13.8111L72.5994 13.4491L72.6802 13.1065L72.7772 12.793L72.8871 12.5118L72.9517 12.3858L73.0164 12.2662L73.5109 12.6896L74.0151 13.1679L74.5225 13.6948L75.0203 14.2539L75.5019 14.8422L75.9608 15.4433L76.3875 16.051L76.7753 16.6554L76.9337 16.9366L77.0662 17.2404L77.1793 17.5604L77.2666 17.8933L77.3312 18.2391L77.3765 18.5946L77.3959 18.9534L77.3991 19.3186L77.3765 19.6839L77.3377 20.0491L77.2763 20.4079L77.1955 20.7569L77.0953 21.0963L76.9757 21.4227L76.84 21.7363L76.6848 22.0271L76.6202 22.1532L76.5685 22.2728L76.5297 22.3859L76.5006 22.4926L76.423 22.8643L76.4004 22.9418L76.3681 23.0129L76.3487 23.0453L76.326 23.0776L76.3002 23.1067L76.2679 23.1358L76.2355 23.1616L76.1968 23.1875L76.1063 23.2327L75.9931 23.2683L75.8574 23.3006L75.0138 23.4428L74.1121 23.5592L73.6596 23.6012L73.2135 23.627L72.7869 23.6335L72.3829 23.6173L71.9692 23.5656L71.5393 23.4784L70.6602 23.2263L69.7649 22.8869L68.889 22.4861L68.0551 22.0498L67.2923 21.607L66.6297 21.1803L66.0964 20.8022L68.3169 20.5371L69.5645 20.4305L70.2206 20.4014L70.8961 20.3917L71.1547 20.4014L71.4229 20.424L71.7009 20.4628L71.9853 20.5145L72.2762 20.5824L72.5703 20.66L72.8677 20.7505L73.1683 20.8507L73.8115 21.0963L74.3609 21.3452L74.8975 21.6264L75.4986 21.956L76.478 22.499L75.9156 21.8461L74.4999 20.2559ZM68.2846 15.3722L67.8288 14.9941L67.4054 14.6095L67.0305 14.2313L66.8657 14.0503L66.7202 13.8725L66.5101 13.572L66.3227 13.2487L66.1514 12.9061L65.9995 12.5474L65.8669 12.1789L65.7538 11.804L65.6601 11.4258L65.5858 11.0477L65.5373 10.676L65.505 10.3108L65.4888 9.95846V9.61909L65.5082 9.29911L65.5437 8.99852L65.6019 8.72379L65.6342 8.60097L65.6763 8.48139L66.1869 8.76904L66.717 9.10518L67.2568 9.48334L67.7933 9.89058L68.3201 10.3269L68.8276 10.7826L69.3091 11.2481L69.7519 11.7167L69.9394 11.9397L70.1075 12.1854L70.2594 12.4536L70.3919 12.7348L70.505 13.0354L70.5987 13.3457L70.6763 13.6657L70.7377 13.9921L70.7765 14.3218L70.7959 14.6579L70.7991 14.9908L70.783 15.3205L70.7474 15.6437L70.6925 15.9605L70.6214 16.2643L70.5276 16.5552L70.4889 16.678L70.463 16.7976L70.4468 16.9043L70.4371 17.0077L70.4275 17.3568L70.4178 17.4311L70.4016 17.499L70.3887 17.5345L70.3725 17.5668L70.3531 17.5992L70.3337 17.6282L70.3046 17.6606L70.2755 17.6897L70.2012 17.7446L70.1075 17.7995L69.9879 17.8545L69.2542 18.1389L68.4656 18.4136L68.0648 18.5365L67.6705 18.6431L67.2858 18.7272L66.9206 18.7886L66.5392 18.8177L66.1417 18.8209L65.311 18.7595L64.4545 18.6205L63.6045 18.4266L62.7868 18.1906L62.0304 17.9353L61.3679 17.6767L60.8281 17.4376L62.7803 16.7847L63.8824 16.455L64.4674 16.3031L65.0718 16.1706L65.3046 16.1318L65.5502 16.1027L65.8055 16.0865L66.0673 16.0801L66.3388 16.0833L66.6168 16.0995L66.898 16.1221L67.1856 16.1576L67.803 16.2578L68.3363 16.3807L68.8599 16.5293L69.4514 16.7168L70.4178 17.0206L69.8069 16.539L68.2846 15.3722ZM61.5715 11.8202L61.1869 11.4969L60.8281 11.1705L60.5081 10.8505L60.3691 10.6954L60.2463 10.5467L60.0685 10.2914L59.9069 10.0166L59.7615 9.72898L59.6354 9.42516L59.5223 9.11165L59.4254 8.79167L59.3446 8.47169L59.2831 8.15171L59.2444 7.8382L59.2153 7.52792L59.2023 7.23056V6.9429L59.2185 6.67141L59.2508 6.41607L59.2961 6.18659L59.3252 6.07993L59.3607 5.97974L59.7938 6.22214L60.2431 6.50657L60.6988 6.82655L61.1545 7.17238L61.6006 7.54408L62.0304 7.9287L62.4377 8.32301L62.8126 8.72056L62.971 8.91126L63.1132 9.11811L63.2425 9.34436L63.3556 9.58353L63.4526 9.83564L63.5334 10.0974L63.598 10.3689L63.6465 10.6469L63.682 10.9281L63.7014 11.2125V11.4937L63.6885 11.7749L63.6594 12.0496L63.6142 12.3179L63.5495 12.5765L63.472 12.8221L63.4396 12.9288L63.417 13.0257L63.4041 13.1195L63.3976 13.2035L63.3879 13.5008L63.3815 13.5623L63.3653 13.6237L63.3556 13.6495L63.3427 13.6786L63.3265 13.7045L63.3071 13.7303L63.2845 13.7562L63.2586 13.782L63.1972 13.8305L63.1164 13.8758L63.0162 13.921L62.3924 14.1634L61.7234 14.3961L61.384 14.4996L61.0479 14.5868L60.7247 14.6612L60.4144 14.7129L60.0912 14.7387L59.755 14.742L59.0504 14.6903L58.3264 14.5707L57.6025 14.4058L56.9108 14.2054L56.2708 13.9889L55.7117 13.7691L55.2527 13.5655L56.9043 13.0128L57.8384 12.7348L58.3329 12.6056L58.8468 12.4924L59.044 12.4601L59.2541 12.4343L59.4706 12.4213L59.6936 12.4149L59.9231 12.4213L60.1558 12.4343L60.6374 12.4827L61.161 12.5668L61.3905 12.6185L61.6135 12.6734L62.0595 12.7995L62.5605 12.9579L63.3782 13.2132L62.8611 12.8059L61.5715 11.8202ZM42.9545 84.9983L42.1821 84.8851L41.4355 84.8108L41.0799 84.7882L40.7406 84.7785L40.4238 84.7817L40.1264 84.7979L39.6578 84.8658L39.1891 84.9756L38.7205 85.1243L38.2583 85.3053L37.8026 85.5186L37.3598 85.7578L36.9331 86.0229L36.5259 86.304L36.151 86.6079L35.7954 86.9214L35.4625 87.2414L35.1619 87.5646L34.8937 87.891L34.661 88.2142L34.4703 88.5342L34.3927 88.6893L34.3248 88.8445L35.0682 89.1063L35.873 89.339L36.723 89.5394L37.5989 89.7107L38.491 89.8464L39.3798 89.9434L40.2525 89.9983L41.0928 90.0145L41.471 89.9983L41.8492 89.9402L42.2306 89.8432L42.6119 89.7107L42.9836 89.5458L43.3521 89.3519L43.7141 89.1257L44.0599 88.8768L44.3928 88.6021L44.7128 88.3047L45.0102 87.9912L45.2914 87.6583L45.5467 87.3125L45.7762 86.9537L45.9766 86.5885L46.1479 86.2135L46.2222 86.0552L46.2998 85.9162L46.3806 85.7966L46.4646 85.6899L46.7652 85.3473L46.8234 85.2665L46.8686 85.1793L46.8848 85.1373L46.9009 85.0888L46.9106 85.0403L46.9171 84.9853V84.8722L46.8977 84.7397L46.8557 84.5878L46.7911 84.4133L46.345 83.3758L45.8344 82.2898L45.2784 81.2426L44.9908 80.761L44.6967 80.3214L44.3605 79.8948L43.9856 79.4778L43.1388 78.6666L42.1982 77.9038L41.2124 77.2024L40.2234 76.5722L39.2764 76.0292L38.4134 75.5831L37.683 75.2502L38.9597 77.9103L39.7192 79.3744L40.6016 80.887L40.789 81.1682L40.9959 81.4527L41.2254 81.7338L41.471 82.015L41.7328 82.293L42.0075 82.5677L42.6022 83.1043L43.281 83.6505L43.8983 84.09L44.535 84.4973L45.2623 84.9369L46.4549 85.6576L45.4465 85.4799L42.9545 84.9983ZM34.5866 81.7242L33.9014 81.472L33.2356 81.2555L32.9156 81.1682L32.6118 81.0907L32.3209 81.0325L32.0494 80.9905L31.6099 80.9614L31.1638 80.9711L30.7146 81.0163L30.2621 81.0939L29.8128 81.1973L29.37 81.3298L28.9401 81.4882L28.5232 81.666L28.1321 81.8696L27.7539 82.0861L27.4016 82.3124L27.0752 82.5483L26.7746 82.794L26.5128 83.0428L26.2866 83.295L26.1896 83.421L26.1023 83.5503L26.7358 83.9317L27.4275 84.3001L28.1677 84.646L28.9369 84.9692L29.7223 85.2633L30.5174 85.5251L31.2996 85.7449L32.0623 85.9227L32.4082 85.9808L32.7637 86.0002L33.1257 85.9873L33.4942 85.942L33.8594 85.8645L34.2279 85.7578L34.5931 85.6221L34.9486 85.4605L35.2977 85.2762L35.6371 85.0694L35.9603 84.8399L36.2705 84.5943L36.5582 84.3292L36.8265 84.048L37.0721 83.7539L37.2887 83.4469L37.3824 83.3176L37.4761 83.2045L37.5699 83.1107L37.6636 83.0299L37.9933 82.7746L38.0579 82.7132L38.1161 82.6453L38.1387 82.6065L38.1613 82.5677L38.1775 82.5225L38.1937 82.4772L38.2098 82.3706L38.213 82.2477L38.2001 82.1023L38.171 81.931L37.9351 80.9032L37.6507 79.814L37.321 78.7538L37.1368 78.2593L36.9428 77.8036L36.7069 77.3511L36.4354 76.8986L35.7987 75.9969L35.0714 75.121L34.2893 74.2935L33.4942 73.5275L32.7217 72.852L32.0106 72.2799L31.403 71.8339L32.127 74.5004L32.573 75.9807L33.1257 77.5256L33.2485 77.8198L33.3907 78.1171L33.5523 78.4177L33.7269 78.7183L33.9208 79.0221L34.1277 79.3259L34.5802 79.9303L35.1038 80.5606L35.595 81.081L36.1057 81.5722L36.694 82.112L37.6604 82.9976L36.7715 82.6388L34.5866 81.7242ZM27.2756 78.13L26.655 77.7325L26.0409 77.3705L25.7468 77.2121L25.4624 77.0699L25.1909 76.9471L24.9323 76.8469L24.5089 76.7208L24.0726 76.6271L23.6233 76.5689L23.1676 76.5431H22.7086L22.2497 76.5754L21.7972 76.6303L21.3544 76.7112L20.931 76.821L20.5237 76.9503L20.1359 77.0925L19.7674 77.2509L19.4313 77.4222L19.1242 77.6064L18.856 77.8036L18.7364 77.9038L18.6265 78.0105L19.1727 78.5244L19.7803 79.0415L20.4332 79.5457L21.1249 80.037L21.8392 80.5024L22.5632 80.9355L23.2872 81.3266L23.9982 81.6724L24.3247 81.805L24.6705 81.9051L25.0261 81.973L25.3945 82.0118L25.7694 82.0183L26.1476 81.9956L26.529 81.9472L26.9104 81.8696L27.2885 81.7662L27.6602 81.6401L28.019 81.4914L28.368 81.3169L28.7042 81.123L29.0177 80.9097L29.3151 80.6769L29.5866 80.4248L29.7029 80.3182L29.816 80.2309L29.9259 80.1598L30.0326 80.1016L30.4043 79.9271L30.4818 79.8819L30.5497 79.8269L30.5788 79.7946L30.6079 79.7623L30.6338 79.7235L30.6564 79.6815L30.6758 79.633L30.6952 79.5813L30.721 79.4617L30.7372 79.3162L30.7404 79.1417L30.7081 78.0816L30.6402 76.9568L30.5206 75.8417L30.4366 75.3181L30.3332 74.8268L30.191 74.3323L30.01 73.8281L29.5607 72.8035L29.0177 71.7854L28.4101 70.7964L27.7798 69.872L27.156 69.0349L26.571 68.3174L26.0603 67.7453L26.2543 70.512L26.4094 72.0602L26.6518 73.6956L26.7164 74.0091L26.8005 74.3323L26.8974 74.6652L27.0138 75.0014L27.1431 75.3407L27.2853 75.6833L27.6117 76.375L28.0061 77.1087L28.3842 77.7293L28.7882 78.324L29.2601 78.9866L30.0358 80.0693L29.2375 79.5199L27.2756 78.13ZM21.2154 72.448L20.6692 72.0084L20.1326 71.6077L19.8708 71.4267L19.6155 71.2651L19.3731 71.1228L19.1404 71L18.759 70.8384L18.3582 70.7059L17.9445 70.6057L17.5179 70.5314L17.088 70.4861L16.6581 70.4667L16.2283 70.47L15.8081 70.499L15.4041 70.5605L15.013 70.638L14.6348 70.7318L14.2793 70.8384L13.9464 70.9645L13.6426 71.1034L13.3743 71.2586L13.2515 71.3426L13.1416 71.4299L13.607 71.9697L14.1274 72.5126L14.6962 73.0556L15.2974 73.5857L15.9244 74.0964L16.5644 74.578L17.2044 75.0175L17.8411 75.4151L18.1352 75.5734L18.4487 75.7027L18.7752 75.8029L19.1145 75.8773L19.4636 75.9225L19.8224 75.9419L20.1811 75.9354L20.5464 75.9031L20.9051 75.8482L21.2639 75.7674L21.6162 75.6639L21.9555 75.5379L22.2852 75.3924L22.602 75.2244L22.8961 75.0369L23.1741 74.8301L23.2936 74.7428L23.4068 74.6717L23.5167 74.6167L23.6201 74.5747L23.9853 74.4519L24.0597 74.4164L24.1275 74.3711L24.1566 74.3453L24.1889 74.3162L24.2148 74.2838L24.2406 74.2451L24.2633 74.203L24.2859 74.1578L24.3215 74.0479L24.3473 73.9121L24.3667 73.7505L24.4313 72.7551L24.4669 71.6949L24.454 70.6445L24.4216 70.1467L24.3699 69.6781L24.2794 69.1997L24.1566 68.7085L23.8269 67.7065L23.41 66.6949L22.9316 65.7091L22.4242 64.7782L21.9135 63.9314L21.4319 63.1977L21.0053 62.6095L20.9407 65.2178L20.9471 66.6819L21.0279 68.2366L21.0603 68.5372L21.1087 68.8474L21.1701 69.1674L21.2477 69.4906L21.3382 69.8235L21.4449 70.1597L21.6873 70.8416L21.9911 71.5689L22.2885 72.1862L22.6149 72.7841L22.9963 73.4532L23.6265 74.5456L22.9284 73.9477L21.2154 72.448ZM16.0311 65.6735L15.5948 65.1111L15.1584 64.5843L14.7318 64.1221L14.5249 63.9217L14.3278 63.7439L13.9884 63.4886L13.6264 63.2591L13.245 63.0555L12.8475 62.8777L12.4402 62.7258L12.0265 62.5998L11.6096 62.4963L11.1926 62.4188L10.7854 62.3735L10.3878 62.3477L9.99999 62.3444L9.63153 62.3606L9.28246 62.3994L8.95925 62.4608L8.80734 62.4996L8.6619 62.5448L8.52615 62.5933L8.4001 62.6515L8.73623 63.2914L9.12732 63.954L9.56042 64.6231L10.0323 65.2889L10.5301 65.9418L11.0472 66.572L11.5773 67.1635L12.1106 67.7097L12.3627 67.9392L12.6374 68.1428L12.9347 68.3238L13.2515 68.479L13.5812 68.6115L13.9238 68.7214L14.2761 68.8054L14.6381 68.8668L15.0001 68.9024L15.3653 68.9153L15.7273 68.9024L16.086 68.8668L16.4383 68.8087L16.7809 68.7246L17.1106 68.618L17.4241 68.4854L17.5567 68.4305L17.6827 68.3917L17.8023 68.3659L17.9122 68.3497L18.2936 68.3206L18.3744 68.3044L18.4487 68.2786L18.4843 68.2624L18.5198 68.2398L18.5554 68.2172L18.5877 68.1849L18.62 68.1525L18.6491 68.1105L18.7073 68.0136L18.7655 67.8907L18.8172 67.7356L19.0919 66.7854L19.3537 65.764L19.567 64.7362L19.6446 64.2417L19.6931 63.773L19.7092 63.285L19.6963 62.7775L19.5896 61.7206L19.4022 60.6314L19.1501 59.5551L18.856 58.5209L18.5424 57.5674L18.2322 56.7335L17.9445 56.0548L17.3207 58.5758L17.0104 60.0012L16.7551 61.5332L16.7228 61.8338L16.7034 62.1473L16.6937 62.4737L16.7001 62.8099L16.7163 63.1525L16.7454 63.5048L16.8359 64.2288L16.9749 65.0109L17.1332 65.6897L17.3207 66.3522L17.5502 67.0989L17.9251 68.3238L17.3724 67.5643L16.0311 65.6735ZM12.6018 56.9921L12.3206 56.323L12.0265 55.6928L11.7259 55.1207L11.5773 54.8686L11.4286 54.6423L11.1635 54.2997L10.8694 53.9765L10.5527 53.6727L10.2133 53.3883L9.85454 53.1232L9.48608 52.8841L9.10793 52.6643L8.72654 52.4704L8.34515 52.312L7.96699 52.173L7.5953 52.0599L7.23654 51.9694L6.8907 51.9047L6.56103 51.8724L6.40589 51.866H6.25721L6.115 51.8756L5.97925 51.895L6.14732 52.6093L6.36064 53.3592L6.61597 54.1284L6.91009 54.9074L7.23007 55.6798L7.57591 56.4361L7.94114 57.1569L8.32253 57.8357L8.50999 58.1298L8.72654 58.4045L8.96895 58.6631L9.23398 58.9055L9.52164 59.1253L9.82545 59.3289L10.1454 59.5099L10.4783 59.6715L10.8209 59.8105L11.17 59.9268L11.5223 60.0206L11.8778 60.0884L12.2301 60.1304L12.5792 60.1466L12.925 60.1369L13.258 60.1014L13.4002 60.0852H13.5327L13.6523 60.0917L13.7622 60.1078L14.1371 60.1886L14.2179 60.1983L14.2987 60.1951L14.3375 60.1886L14.3763 60.1789L14.415 60.1628L14.4538 60.1466L14.4926 60.1208L14.5314 60.0917L14.6122 60.0141L14.6962 59.9107L14.7835 59.7781L15.2812 58.941L15.7855 58.0296L16.2412 57.0987L16.4351 56.6462L16.5967 56.2067L16.7292 55.7412L16.8424 55.2467L16.9975 54.1963L17.0815 53.0909L17.1009 51.9791L17.0718 50.8996L17.0007 49.8911L16.9038 48.9958L16.7939 48.2589L15.5754 50.5149L14.929 51.7981L14.3084 53.204L14.205 53.4852L14.108 53.7826L14.0207 54.0929L13.9464 54.4193L13.8785 54.7587L13.8203 55.1045L13.7298 55.8285L13.6717 56.6236L13.6587 57.3217L13.6781 58.0166L13.7169 58.8021L13.7816 60.0884L13.4325 59.1996L12.6018 56.9921ZM11.3542 47.1471L11.2637 46.4198L11.1539 45.7217L11.0213 45.0818L10.947 44.7941L10.8662 44.5291L10.7078 44.1186L10.5139 43.7146L10.2909 43.3203L10.0452 42.9421L9.77697 42.5769L9.48932 42.2278L9.18873 41.9014L8.87522 41.5943L8.552 41.3228L8.22879 41.0707L7.90235 40.8412L7.58237 40.6408L7.26886 40.4728L6.96504 40.3338L6.67415 40.2336L6.53517 40.198L6.39942 40.1722L6.3671 40.9091L6.37033 41.6945L6.40589 42.5122L6.47376 43.3493L6.57072 44.1897L6.70001 45.0203L6.85192 45.8251L7.03291 46.5944L7.13311 46.9338L7.26563 47.2667L7.42723 47.5931L7.61793 47.9099L7.83124 48.2137L8.06719 48.5046L8.32253 48.7793L8.59725 49.0379L8.88814 49.2803L9.18873 49.5L9.50224 49.7037L9.82222 49.8814L10.1487 50.0333L10.4783 50.1594L10.8112 50.2596L11.1409 50.3307L11.2799 50.3598L11.406 50.4018L11.5191 50.4471L11.6193 50.4988L11.9554 50.6927L12.0298 50.7282L12.1073 50.7476L12.1461 50.7541L12.1849 50.7573H12.2269L12.2689 50.7509L12.3109 50.7379L12.3562 50.725L12.4564 50.6765L12.563 50.6022L12.6826 50.5052L13.3872 49.862L14.1145 49.151L14.4668 48.7825L14.8029 48.4076L15.1099 48.0327L15.3847 47.6642L15.64 47.2602L15.8792 46.8239L16.3155 45.8672L16.6937 44.8394L17.0137 43.7825L17.2755 42.7385L17.4823 41.7527L17.631 40.8671L17.7247 40.1269L15.9503 41.8981L14.9871 42.9195L14.011 44.0669L13.8365 44.2996L13.662 44.5549L13.4971 44.8264L13.3355 45.1141L13.1771 45.4147L13.0252 45.7314L12.744 46.394L12.4758 47.1341L12.2754 47.8L12.1041 48.469L11.9296 49.2318L11.6419 50.4826L11.5514 49.5259L11.3542 47.1471ZM12.3109 37.357L12.4079 36.6298L12.4758 35.9252L12.5081 35.2723V34.9717L12.4952 34.6938L12.4435 34.251L12.3594 33.8082L12.2463 33.3654L12.1041 32.9258L11.936 32.4959L11.7453 32.0758L11.5352 31.6717L11.3122 31.2839L11.073 30.9251L10.8242 30.589L10.5688 30.2755L10.3103 29.9878L10.0517 29.7325L9.79313 29.5095L9.5378 29.3285L9.41175 29.2541L9.28892 29.1895L9.07237 29.8876L8.87845 30.6439L8.70715 31.4423L8.56493 32.2665L8.44858 33.1036L8.36131 33.9407L8.30636 34.7649L8.28697 35.5567L8.2999 35.9123L8.34192 36.271L8.41626 36.6298L8.51968 36.9886L8.64897 37.3441L8.80411 37.6932L8.98187 38.0325L9.17903 38.3622L9.39882 38.679L9.63476 38.9828L9.88363 39.2672L10.1487 39.5322L10.4234 39.7746L10.7111 39.9944L11.0019 40.1884L11.3025 40.3532L11.4318 40.4243L11.5417 40.4986L11.6387 40.5794L11.7227 40.657L11.9974 40.9447L12.0621 40.9996L12.1299 41.0416L12.1655 41.0578L12.2043 41.0739L12.2431 41.0836L12.2851 41.0901L12.3303 41.0933L12.3788 41.0901L12.4855 41.0739L12.6051 41.0352L12.7473 40.9738L13.5876 40.5633L14.4668 40.0914L14.8966 39.8393L15.3136 39.5775L15.7047 39.3092L16.0602 39.0345L16.406 38.721L16.7454 38.3719L17.4047 37.58L18.0253 36.7009L18.5974 35.7798L19.1113 34.8521L19.5573 33.9633L19.9258 33.1553L20.2005 32.4701L18.0512 33.653L16.865 34.3544L16.2541 34.7455L15.6368 35.1721L15.4073 35.3467L15.1811 35.5406L14.9516 35.7507L14.7221 35.9801L14.4958 36.2258L14.2728 36.4844L13.8365 37.0403L13.3905 37.6738L13.0317 38.2523L12.702 38.847L12.34 39.529L11.7486 40.6505L11.9005 39.7003L12.3109 37.357ZM16.1022 27.7932L16.3446 27.1662L16.5579 26.5521L16.7292 25.9735L16.7939 25.7053L16.8424 25.4532L16.8908 25.0427L16.9102 24.6225L16.9038 24.1959L16.8682 23.7692L16.8133 23.3394L16.7325 22.916L16.6323 22.5023L16.5159 22.0983L16.3769 21.7169L16.225 21.3516L16.0634 21.0058L15.8954 20.6858L15.7176 20.3885L15.5334 20.1267L15.3427 19.8972L15.2457 19.8002L15.1487 19.7097L14.8061 20.2818L14.47 20.9121L14.1468 21.5843L13.8397 22.2889L13.5553 23.0129L13.3 23.7402L13.0737 24.4642L12.8863 25.1688L12.8184 25.492L12.7828 25.8249L12.7699 26.1642L12.7861 26.5133L12.8248 26.8624L12.8895 27.2147L12.9768 27.5637L13.0834 27.9096L13.2095 28.2489L13.3549 28.5786L13.5198 28.8986L13.7007 29.2024L13.8947 29.4901L14.1015 29.7583L14.3245 30.004L14.5573 30.227L14.6575 30.324L14.7415 30.4177L14.8094 30.5114L14.8708 30.6052L15.055 30.9316L15.1003 30.9962L15.152 31.0544L15.1811 31.077L15.2101 31.0997L15.2457 31.1191L15.2812 31.1352L15.32 31.1481L15.3653 31.1578L15.4622 31.1708L15.5818 31.1675L15.7208 31.1481L16.5612 30.9898L17.45 30.7894L17.8896 30.6698L18.3194 30.5405L18.7267 30.3983L19.1048 30.2432L19.483 30.0492L19.8611 29.8198L20.6239 29.2768L21.3673 28.6465L22.0816 27.9613L22.741 27.2599L23.3324 26.5747L23.8334 25.9445L24.2277 25.3982L22.046 25.9154L20.8308 26.2483L20.2005 26.4454L19.5573 26.6717L19.3149 26.7719L19.0693 26.8882L18.8172 27.0207L18.5651 27.1662L18.3097 27.3278L18.0512 27.5056L17.7958 27.693L17.5405 27.8934L17.0072 28.3491L16.5612 28.779L16.1345 29.2283L15.6659 29.7486L14.8966 30.6052L15.236 29.7907L16.1022 27.7932ZM21.4901 20.2559L21.9071 19.7453L22.2885 19.2378L22.6214 18.7498L22.7636 18.5171L22.8832 18.2941L23.0512 17.9224L23.1934 17.5345L23.313 17.1273L23.4068 16.7071L23.4779 16.2837L23.5296 15.8538L23.5587 15.4272L23.5651 15.0038L23.5457 14.5933L23.5102 14.1958L23.4617 13.8111L23.3938 13.4491L23.313 13.1065L23.2161 12.793L23.1062 12.5118L23.0415 12.3858L22.9769 12.2662L22.4824 12.6896L21.9782 13.1679L21.4707 13.6948L20.973 14.2539L20.4914 14.8422L20.0324 15.4433L19.6058 16.051L19.218 16.6554L19.0596 16.9366L18.9238 17.2404L18.8139 17.5604L18.7267 17.8933L18.6588 18.2391L18.6168 18.5946L18.5942 18.9534V19.3186L18.6136 19.6839L18.6556 20.0491L18.717 20.4079L18.7978 20.7569L18.898 21.0963L19.0143 21.4227L19.1533 21.7363L19.3085 22.0271L19.3731 22.1532L19.4248 22.2728L19.4636 22.3859L19.4927 22.4926L19.5703 22.8643L19.5929 22.9418L19.6252 23.0129L19.6446 23.0453L19.6672 23.0776L19.6931 23.1067L19.7254 23.1358L19.7577 23.1616L19.7965 23.1875L19.887 23.2327L20.0001 23.2683L20.1359 23.3006L20.9795 23.4428L21.8812 23.5592L22.3337 23.6012L22.7797 23.627L23.2064 23.6335L23.6104 23.6173L24.0241 23.5656L24.454 23.4784L25.3331 23.2263L26.2284 22.8869L27.1043 22.4861L27.9349 22.0498L28.6977 21.607L29.3603 21.1803L29.8936 20.8022L27.6731 20.5371L26.4256 20.4305L25.7694 20.4014L25.0939 20.3917L24.8354 20.4014L24.5671 20.424L24.2924 20.4628L24.0079 20.5145L23.717 20.5824L23.4229 20.66L23.1256 20.7505L22.825 20.8507L22.1818 21.0963L21.6323 21.3452L21.0958 21.6264L20.4946 21.956L19.5153 22.499L20.0777 21.8461L21.4901 20.2559ZM27.7055 15.3722L28.1612 14.9941L28.5846 14.6095L28.9628 14.2313L29.1244 14.0503L29.2698 13.8725L29.4799 13.572L29.6706 13.2487L29.8419 12.9061L29.9938 12.5474L30.1263 12.1789L30.2394 11.804L30.3332 11.4258L30.4075 11.0477L30.456 10.676L30.4851 10.3108L30.5012 9.95846V9.61909L30.4818 9.29911L30.4463 8.99852L30.3913 8.72379L30.3558 8.60097L30.317 8.48139L29.8063 8.76904L29.2763 9.10518L28.7365 9.48334L28.2 9.89058L27.6731 10.3269L27.1657 10.7826L26.6841 11.2481L26.2413 11.7167L26.0539 11.9397L25.8858 12.1854L25.7339 12.4536L25.6014 12.7348L25.4882 13.0354L25.3945 13.3457L25.3169 13.6657L25.2555 13.9921L25.2167 14.3218L25.1941 14.6579L25.1909 14.9908L25.207 15.3205L25.2426 15.6437L25.2975 15.9605L25.3687 16.2643L25.4624 16.5552L25.5012 16.678L25.527 16.7976L25.5464 16.9043L25.5529 17.0077L25.5658 17.3568L25.5755 17.4311L25.5917 17.499L25.6046 17.5345L25.6208 17.5668L25.6369 17.5992L25.6595 17.6282L25.6854 17.6606L25.7145 17.6897L25.7888 17.7446L25.8858 17.7995L26.0021 17.8545L26.7358 18.1389L27.5277 18.4136L27.9285 18.5365L28.3228 18.6431L28.7074 18.7272L29.0726 18.7886L29.454 18.8177L29.8516 18.8209L30.6822 18.7595L31.5387 18.6205L32.3888 18.4266L33.2065 18.1906L33.9596 17.9353L34.6222 17.6767L35.1619 17.4376L33.213 16.7847L32.1108 16.455L31.5258 16.3031L30.9182 16.1706L30.6855 16.1318L30.4431 16.1027L30.1877 16.0865L29.9259 16.0801L29.6544 16.0833L29.3765 16.0995L29.0953 16.1221L28.8076 16.1576L28.1903 16.2578L27.657 16.3807L27.1334 16.5293L26.5419 16.7168L25.5755 17.0206L26.1831 16.539L27.7055 15.3722ZM34.4218 11.8202L34.8064 11.4969L35.1684 11.1705L35.4851 10.8505L35.6241 10.6954L35.7469 10.5467L35.9247 10.2914L36.0863 10.0166L36.2285 9.72898L36.3578 9.42516L36.4709 9.11165L36.5647 8.79167L36.6455 8.47169L36.7069 8.15171L36.7489 7.8382L36.7748 7.52792L36.7909 7.23056V6.9429L36.7748 6.67141L36.7424 6.41607L36.6972 6.18659L36.6681 6.07993L36.6325 5.97974L36.1994 6.22214L35.7502 6.50657L35.2945 6.82655L34.8387 7.17238L34.3927 7.54408L33.9596 7.9287L33.5523 8.32301L33.1774 8.72056L33.019 8.91126L32.8768 9.11811L32.7476 9.34436L32.6344 9.58353L32.5407 9.83564L32.4567 10.0974L32.392 10.3689L32.3435 10.6469L32.308 10.9281L32.2918 11.2125L32.2886 11.4937L32.3015 11.7749L32.3338 12.0496L32.3791 12.3179L32.4437 12.5765L32.5213 12.8221L32.5536 12.9288L32.5763 13.0257L32.5892 13.1195L32.5956 13.2035L32.6053 13.5008L32.6118 13.5623L32.628 13.6237L32.6377 13.6495L32.6506 13.6786L32.6667 13.7045L32.6861 13.7303L32.7088 13.7562L32.7346 13.782L32.796 13.8305L32.8768 13.8758L32.977 13.921L33.5976 14.1634L34.2699 14.3961L34.6092 14.4996L34.9422 14.5868L35.2686 14.6612L35.5789 14.7129L35.9021 14.7387L36.2382 14.742L36.9428 14.6903L37.6668 14.5707L38.3876 14.4058L39.0825 14.2054L39.7224 13.9889L40.2816 13.7691L40.7406 13.5655L39.0889 13.0128L38.1516 12.7348L37.6571 12.6056L37.1432 12.4924L36.9461 12.4601L36.7392 12.4343L36.5227 12.4213L36.2996 12.4149L36.0702 12.4213L35.8342 12.4343L35.3526 12.4827L34.8323 12.5668L34.5996 12.6185L34.3798 12.6734L33.9337 12.7995L33.4328 12.9579L32.615 13.2132L33.1289 12.8059L34.4218 11.8202Z" fill="url(#paint1_linear_224_272)"/>
<defs>
<linearGradient id="paint0_linear_224_272" x1="30.2202" y1="45.6347" x2="65.7831" y2="45.6347" gradientUnits="userSpaceOnUse">
<stop stop-color="#A55906"/>
<stop offset="1" stop-color="#FECD51"/>
</linearGradient>
<linearGradient id="paint1_linear_224_272" x1="3.25781" y1="51.1258" x2="92.7354" y2="44.8684" gradientUnits="userSpaceOnUse">
<stop stop-color="#A55906"/>
<stop offset="1" stop-color="#FECD51"/>
</linearGradient>
</defs>
</svg>
