<svg width="46" height="46" viewBox="0 0 46 46" fill="none" xmlns="http://www.w3.org/2000/svg">
<path fill-rule="evenodd" clip-rule="evenodd" d="M18.4235 16.7372L18.4158 16.7279L18.408 16.7201L18.4003 16.7139L18.3941 16.7093L18.3863 16.7046L18.3801 16.7015L18.3739 16.7H18.3708H18.3678H18.3647H18.3616L18.3585 16.7015H18.3554L18.3523 16.7031L18.3492 16.7046L18.343 16.7093L18.3383 16.7139L18.3321 16.7201L18.3275 16.7279L18.3228 16.7372L18.2423 26.9819L18.25 27.1925L18.2609 27.2901L18.2748 27.3815L18.295 27.4667L18.3182 27.5472L18.3461 27.6215L18.377 27.6912L18.4142 27.7532L18.4545 27.812L18.4978 27.8647L18.5474 27.9112L18.6001 27.9514L18.6574 27.987L18.7193 28.0165L18.7859 28.0412L18.9578 28.0955L19.1948 28.1589L19.8685 28.3123L19.8747 28.3231L19.8824 28.334L19.887 28.3479L19.8932 28.3618L19.8979 28.3789L19.9025 28.3975L19.9103 28.4377L19.9149 28.4857L19.918 28.5399V28.6003V28.6685L19.9103 28.797L19.9056 28.8512L19.8994 28.8992L19.8932 28.9411L19.8855 28.9767L19.8777 29.0045L19.8731 29.0154L19.8685 29.0262L17.2 28.9519L15.5955 28.9891L14.5533 29.0262L14.5378 28.9937L14.5254 28.9565L14.5145 28.9163L14.5052 28.8714L14.496 28.8233L14.4898 28.7722L14.482 28.6561L14.4805 28.5972L14.482 28.543L14.4851 28.4919L14.4898 28.447L14.4975 28.4067L14.5068 28.3711L14.513 28.3541L14.5192 28.3386L14.5254 28.3247L14.5331 28.3123L15.2285 28.2008L15.4686 28.1543L15.6358 28.1156L15.7411 28.0769L15.8371 28.0335L15.9254 27.9855L16.0029 27.9328L16.04 27.905L16.0726 27.8771L16.1035 27.8477L16.133 27.8167L16.1593 27.7857L16.1841 27.7516L16.2073 27.7191L16.2274 27.6835L16.263 27.6061L16.2956 27.5162L16.325 27.414L16.3498 27.2994L16.3715 27.1709L16.39 27.0299L16.4179 26.7109L16.5774 21.12L16.6378 15.6778L16.6285 15.4904L16.6177 15.4037L16.6022 15.3216L16.5821 15.2426L16.5588 15.1699L16.5294 15.1017L16.4969 15.0382L16.4597 14.9778L16.4179 14.9236L16.3715 14.874L16.3219 14.8291L16.2661 14.7873L16.2073 14.7517L16.1438 14.7192L16.0772 14.6928L15.9579 14.6665L15.7009 14.6123L14.7732 14.4218L14.7654 14.411L14.7577 14.4001L14.7515 14.3862L14.7453 14.3723L14.7407 14.3552L14.736 14.3366L14.7267 14.2948L14.7205 14.2468L14.7159 14.1926L14.7128 14.1322V14.0641V13.9975L14.7159 13.9371L14.7205 13.8844L14.7267 13.8395L14.736 13.8023L14.7407 13.7853L14.7453 13.7714L14.7515 13.759L14.7577 13.7481L14.7654 13.7404L14.7685 13.7357L14.7732 13.7326L16.1376 13.7698L18.3228 13.8054L18.3259 13.8147L18.3352 13.8349L18.3724 13.9015L18.5118 14.1431L19.0074 14.984L20.5344 17.5425L22.1373 20.2311L23.0542 21.8015L23.4553 22.486L23.5993 22.7307L24.6524 24.5226L24.8615 24.885L24.9513 25.0538L25.0319 25.2195L25.1016 25.3836L25.1604 25.5509L25.2115 25.7228L25.2518 25.9025L25.2766 26.0728L25.2921 26.2354L25.2983 26.3919L25.2967 26.5436L25.2859 26.6954L25.2657 26.8456L25.241 26.9974L25.2084 27.1523L25.1883 27.2266L25.1635 27.2994L25.1047 27.4465L25.0319 27.5875L24.9498 27.7222L24.86 27.8477L24.7686 27.9607L24.6772 28.0614L24.5905 28.145L24.5611 28.1667L24.5285 28.1853L24.4929 28.2023L24.4527 28.2178L24.4093 28.2302L24.3644 28.241L24.2684 28.2581L24.1661 28.2689L24.0639 28.2751L23.8703 28.2782V26.9649L23.9524 26.9231L24.0268 26.8735L24.0949 26.8162L24.1553 26.7512L24.208 26.6815L24.2513 26.6056L24.2885 26.5251L24.3148 26.4399L24.3334 26.3516L24.3443 26.2602V26.1657L24.335 26.0697L24.3164 25.9722L24.2885 25.8746L24.2498 25.777L24.2018 25.6795L24.1723 25.6299L24.1553 25.6036L22.9551 23.7141L21.0331 20.7669L19.2381 18.0195L18.6543 17.1166L18.4886 16.8518L18.4421 16.7743L18.4235 16.7372ZM23.8703 28.2797V26.9649V28.2797ZM23.7666 15.1404L23.7681 20.307L23.1378 21.3833L22.5013 20.307L22.5292 15.1404L22.5137 14.6836L22.5059 14.5287L22.4966 14.4234L22.478 14.2623L22.4657 14.1895L22.4533 14.1229L22.4362 14.061L22.4192 14.0068L22.3991 13.9557L22.3774 13.9123L22.365 13.8922L22.3511 13.872L22.3356 13.8534L22.3185 13.8364L22.3015 13.8194L22.2814 13.8023L22.2597 13.7868L22.238 13.7714L22.1884 13.7435L22.1327 13.7187L22.0707 13.697L22.0041 13.6784L21.9391 13.6568L21.8694 13.6382L21.7904 13.618L21.7037 13.601L21.5085 13.5685L21.2855 13.5406L21.2824 13.5375L21.2793 13.536L21.2747 13.5298L21.27 13.5205L21.2669 13.5112L21.2623 13.5019L21.2592 13.4895L21.253 13.4601L21.2484 13.426L21.2437 13.3857L21.2422 13.3408V13.2897V13.2386L21.2453 13.1921L21.2499 13.1519L21.2561 13.1178L21.2592 13.1023L21.2639 13.0899L21.2685 13.0775L21.2747 13.0667L21.2793 13.0574L21.2855 13.0497L21.2917 13.0435L21.2948 13.0404L21.2995 13.0388L22.1451 13.0636L23.2586 13.0899L24.3024 13.0636L25.0768 13.0388L25.0783 13.0404L25.0799 13.0419L25.0814 13.0435L25.0845 13.0466L25.0876 13.0512L25.0907 13.0574L25.0938 13.0636L25.0985 13.0713L25.1016 13.0806L25.1047 13.0899V13.5406L24.8244 13.584L24.5936 13.6273L24.4093 13.6691L24.335 13.6908L24.273 13.7125L24.2018 13.7357L24.1367 13.7636L24.0794 13.7946L24.0531 13.8116L24.0283 13.8302L24.0035 13.8488L23.9819 13.8689L23.9617 13.8891L23.9431 13.9107L23.9261 13.934L23.9106 13.9572L23.8967 13.982L23.8858 14.0068L23.8641 14.0625L23.844 14.1245L23.827 14.1926L23.813 14.267L23.8007 14.349L23.7914 14.4358L23.7805 14.6309L23.7666 15.1404ZM23.7697 28.6995L23.7805 29.1021L23.7914 29.2973L23.8007 29.384L23.813 29.4661L23.827 29.5404L23.844 29.6085L23.8641 29.6705L23.8858 29.7262L23.8967 29.751L23.9106 29.7758L23.9261 29.799L23.9431 29.8223L23.9617 29.844L23.9819 29.8641L24.0035 29.8842L24.0283 29.9028L24.0531 29.9214L24.0794 29.9384L24.1367 29.9694L24.2018 29.9973L24.273 30.0205L24.335 30.0422L24.4093 30.0639L24.5936 30.1072L24.8244 30.149L25.1047 30.1924V30.6431L25.1016 30.6524L25.0985 30.6617L25.0938 30.6694L25.0907 30.6756L25.0876 30.6818L25.0845 30.688L25.0799 30.6926L25.0783 30.6942L25.0768 30.6957L24.3024 30.6694L23.2586 30.6431L22.1451 30.6694L21.2995 30.6957L21.2948 30.6926L21.2917 30.6911L21.2855 30.6849L21.2793 30.6756L21.2747 30.6663L21.2685 30.6555L21.2639 30.6446L21.2592 30.6307L21.2561 30.6152L21.2499 30.5811L21.2453 30.5409L21.2422 30.4944V30.4433V30.3922L21.2437 30.3473L21.2484 30.307L21.253 30.2729L21.2592 30.2435L21.2623 30.2311L21.2669 30.2218L21.27 30.2125L21.2747 30.2033L21.2793 30.1971L21.2824 30.1955L21.2855 30.1924L21.5085 30.1645L21.7037 30.132L21.7904 30.115L21.8694 30.0948L21.9391 30.0763L22.0041 30.0546L22.0707 30.036L22.1327 30.0143L22.1884 29.9895L22.238 29.9617L22.2597 29.9462L22.2814 29.9307L22.3015 29.9136L22.3185 29.8966L22.3356 29.8796L22.3511 29.861L22.365 29.8409L22.3774 29.8207L22.3991 29.7774L22.4192 29.7262L22.4362 29.672L22.4533 29.6101L22.4657 29.5435L22.478 29.4707L22.4966 29.3096L22.5028 29.2338L22.5106 29.13L22.523 28.8342L22.5524 25.5974L23.1378 24.5226L23.7681 25.5974V28.4888L23.7697 28.6995ZM23.3159 21.6853L25.7319 17.5626L27.0669 15.1621L27.5005 14.2933L27.626 13.9944L27.6616 13.886L27.6786 13.8054L29.8639 13.7698L31.2283 13.7326L31.2314 13.7357L31.2345 13.7404L31.2422 13.7481L31.2484 13.759L31.2546 13.7714L31.2593 13.7853L31.2639 13.8023L31.2732 13.8395L31.2794 13.8844L31.2841 13.9371L31.2872 13.9975L31.2887 14.0641L31.2872 14.1322L31.2841 14.1926L31.2794 14.2468L31.2732 14.2948L31.2639 14.3366L31.2593 14.3552L31.2546 14.3723L31.2484 14.3862L31.2422 14.4001L31.2345 14.411L31.2283 14.4218L30.2991 14.6123L30.042 14.6665L29.9243 14.6928L29.8561 14.7192L29.7926 14.7517L29.7338 14.7873L29.678 14.8291L29.6285 14.874L29.582 14.9236L29.5402 14.9778L29.503 15.0382L29.4705 15.1017L29.4426 15.1699L29.4179 15.2426L29.3977 15.3216L29.3822 15.4037L29.3714 15.4904L29.3636 15.6778L29.424 21.12L29.5836 26.7109L29.6099 27.0299L29.6285 27.1709L29.6502 27.2994L29.6765 27.414L29.7044 27.5162L29.7369 27.6061L29.7741 27.6835L29.7926 27.7191L29.8159 27.7516L29.8407 27.7857L29.867 27.8167L29.8964 27.8477L29.9274 27.8771L29.9615 27.905L29.9971 27.9328L30.0745 27.9855L30.1628 28.0335L30.2588 28.0769L30.3657 28.1156L30.5314 28.1543L30.7714 28.2008L31.4684 28.3123L31.4745 28.3247L31.4823 28.3386L31.4885 28.3541L31.4931 28.3711L31.5024 28.4067L31.5102 28.447L31.5164 28.4919L31.5195 28.543V28.5972V28.6561L31.5102 28.7722L31.504 28.8233L31.4947 28.8714L31.4854 28.9163L31.4745 28.9565L31.4622 28.9937L31.4482 29.0262L30.4059 28.9891L28.8015 28.9519L26.133 29.0262L26.1268 29.0154L26.1222 29.0045L26.1144 28.9767L26.1067 28.9411L26.1005 28.8992L26.0943 28.8512L26.0897 28.797L26.0835 28.6685L26.0819 28.6003V28.5399L26.085 28.4857L26.0897 28.4377L26.0974 28.3975L26.102 28.3789L26.1067 28.3618L26.1129 28.3479L26.1191 28.334L26.1253 28.3231L26.133 28.3123L26.8052 28.1589L27.0421 28.0955L27.2156 28.0412L27.2806 28.0165L27.3426 27.987L27.3999 27.9514L27.4525 27.9112L27.5021 27.8647L27.5455 27.812L27.5857 27.7532L27.6229 27.6912L27.6539 27.6215L27.6817 27.5472L27.705 27.4667L27.7251 27.3815L27.739 27.2901L27.7499 27.1925L27.7592 26.9819L27.6786 16.7372L27.6724 16.7279L27.6678 16.7201L27.6616 16.7139L27.657 16.7093L27.6508 16.7046L27.6477 16.7031L27.6446 16.7015H27.6415L27.6384 16.7H27.6353H27.6322H27.6291H27.626L27.6198 16.7015L27.6136 16.7046L27.6059 16.7093L27.5997 16.7139L27.5919 16.7201L27.5842 16.7279L27.578 16.7372L23.8858 22.6564L23.3159 21.6853ZM22.3944 28.2782V26.9649L22.3077 26.92L22.2303 26.8642L22.1621 26.8007L22.1033 26.7264L22.0521 26.6459L22.0119 26.5591L21.9809 26.4662L21.9577 26.3686L21.9453 26.268L21.9437 26.1627L21.9515 26.0573L21.9685 25.9505L21.9964 25.8436L22.0351 25.7368L22.0847 25.633L22.1451 25.5308L22.9427 24.1942L22.3743 23.2263L21.6448 24.4436L21.2979 25.1188L21.2189 25.2923L21.1492 25.4673L21.0919 25.6454L21.0486 25.8281L21.0223 25.9985L21.0068 26.1611L21.0006 26.3175L21.0037 26.4708L21.0145 26.6211L21.0331 26.7713L21.0594 26.9231L21.0935 27.0779L21.1121 27.1523L21.1369 27.2266L21.1957 27.3722L21.2685 27.5147L21.3506 27.6494L21.4389 27.7749L21.5302 27.8879L21.6216 27.9886L21.7099 28.0722L21.7362 28.0955L21.7687 28.1156L21.8028 28.1373L21.84 28.1559L21.9236 28.1915L22.0134 28.2209L22.1079 28.2457L22.2055 28.2627L22.3015 28.2751L22.3944 28.2782Z" fill="url(#paint0_linear_6502_1670)"/>
<path fill-rule="evenodd" clip-rule="evenodd" d="M25.4128 40.7284L25.7829 40.6742L26.1407 40.6386L26.311 40.6277L26.4736 40.6231L26.627 40.6246L26.7679 40.6324L26.9925 40.6649L27.2186 40.7176L27.4416 40.7888L27.6646 40.8755L27.883 40.9778L28.0951 41.0924L28.2996 41.2194L28.4947 41.3541L28.6744 41.4997L28.8447 41.6499L29.0042 41.8032L29.1483 41.9581L29.2768 42.1145L29.3868 42.2694L29.4782 42.4227L29.5153 42.497L29.5478 42.5714L29.1916 42.6968L28.806 42.8083L28.4002 42.9044L27.9805 42.9864L27.5531 43.0515L27.1272 43.0979L26.709 43.1243L26.3064 43.132L26.1252 43.1243L25.9424 43.0964L25.7597 43.0499L25.5785 42.9864L25.3988 42.9075L25.2223 42.8145L25.0504 42.7061L24.8847 42.5869L24.7236 42.4552L24.5718 42.3127L24.4278 42.1625L24.2946 42.003L24.1722 41.8373L24.0623 41.6654L23.9663 41.4904L23.8842 41.3107L23.8486 41.2348L23.8114 41.1682L23.7727 41.1109L23.7324 41.0598L23.5884 40.8957L23.5605 40.857L23.5388 40.8151L23.5295 40.795L23.5233 40.7718L23.5171 40.7485L23.514 40.7222L23.5156 40.668L23.5249 40.6045L23.545 40.5317L23.576 40.4481L23.7897 39.951L24.0329 39.4306L24.2992 38.9288L24.4371 38.698L24.578 38.4874L24.7391 38.283L24.9187 38.0832L25.326 37.6945L25.7752 37.329L26.2491 36.9929L26.723 36.6909L27.1768 36.4307L27.5887 36.217L27.9387 36.0575L27.327 37.3321L26.963 38.0336L26.5402 38.7584L26.4504 38.8932L26.3513 39.0295L26.2429 39.1642L26.1252 39.2989L25.9997 39.4321L25.8681 39.5638L25.5831 39.8209L25.2579 40.0826L24.9621 40.2932L24.657 40.4884L24.3085 40.699L23.7355 41.0443L24.2203 40.9592L25.4128 40.7284ZM29.4239 39.1596L29.7523 39.0388L30.0713 38.935L30.2246 38.8932L30.3702 38.856L30.5096 38.8281L30.6397 38.808L30.8488 38.7941L31.0625 38.7987L31.2793 38.8204L31.4946 38.8576L31.7099 38.9071L31.922 38.9706L32.1296 39.0465L32.3293 39.1317L32.5167 39.2293L32.6964 39.333L32.8667 39.4414L33.0232 39.5545L33.1656 39.6722L33.2926 39.7914L33.4011 39.9122L33.4475 39.9726L33.4893 40.0346L33.1858 40.2173L32.8528 40.3939L32.4997 40.5596L32.1311 40.7145L31.7532 40.8554L31.3738 40.9809L30.9974 41.0862L30.6319 41.1713L30.4662 41.1992L30.2959 41.2085L30.1224 41.2023L29.9474 41.1806L29.7709 41.1435L29.5943 41.0924L29.4209 41.0273L29.2489 40.9499L29.0817 40.8616L28.9191 40.7625L28.7642 40.6525L28.6171 40.5348L28.4777 40.4078L28.3507 40.2731L28.233 40.1322L28.1292 39.985L28.0843 39.9231L28.0394 39.8689L27.9945 39.824L27.9496 39.7852L27.7916 39.6629L27.7606 39.6335L27.7327 39.6009L27.7219 39.5824L27.7111 39.5638L27.7033 39.5421L27.6956 39.5204L27.6878 39.4693L27.6863 39.4104L27.6925 39.3408L27.7064 39.2587L27.8179 38.7662L27.9542 38.2443L28.1137 37.7363L28.202 37.4993L28.2949 37.281L28.408 37.0641L28.5381 36.8473L28.8432 36.4152L29.1916 35.9955L29.5664 35.5991L29.9474 35.232L30.316 34.9083L30.6567 34.6342L30.9479 34.4205L30.6025 35.6982L30.3888 36.4075L30.124 37.1478L30.0651 37.2887L29.997 37.4312L29.9195 37.5752L29.8359 37.7192L29.743 37.8648L29.6439 38.0104L29.427 38.3L29.1746 38.602L28.9407 38.8514L28.6961 39.0868L28.4142 39.3454L27.9511 39.7698L28.377 39.5978L29.4239 39.1596ZM32.9271 37.4374L33.2245 37.2469L33.5172 37.0734L33.6581 36.9975L33.796 36.9294L33.9261 36.8706L34.05 36.8225L34.2513 36.7621L34.4619 36.7172L34.6756 36.6894L34.8956 36.677H35.1155L35.3354 36.6925L35.5522 36.7188L35.7644 36.7575L35.9673 36.8102L36.1624 36.8721L36.3483 36.9402L36.5233 37.0161L36.6859 37.0982L36.833 37.1865L36.9616 37.281L37.0189 37.329L37.0715 37.3801L36.8098 37.6263L36.5186 37.8741L36.2042 38.1157L35.8744 38.3511L35.5321 38.5741L35.1836 38.7817L34.8367 38.9691L34.496 39.1348L34.3396 39.1983L34.1739 39.2463L34.0035 39.2788L33.827 39.2974L33.6473 39.3005L33.4661 39.2896L33.2834 39.2664L33.1006 39.2293L32.9194 39.1797L32.7429 39.1193L32.5694 39.048L32.4021 38.9644L32.2426 38.8715L32.0908 38.7693L31.9499 38.6578L31.8198 38.537L31.7641 38.4859L31.7099 38.444L31.6557 38.41L31.6061 38.3821L31.4264 38.2985L31.3908 38.2768L31.3583 38.2505L31.3428 38.235L31.3304 38.2195L31.318 38.2009L31.3072 38.1808L31.2963 38.1575L31.2886 38.1328L31.2747 38.0755L31.2669 38.0058L31.2654 37.9221L31.2809 37.4142L31.3149 36.8752L31.3722 36.3409L31.4125 36.09L31.4621 35.8546L31.5302 35.6176L31.6169 35.376L31.8322 34.8851L32.0924 34.3973L32.382 33.9233L32.684 33.4804L32.9845 33.0793L33.2632 32.7355L33.5079 32.4614L33.4165 33.7871L33.3422 34.5289L33.226 35.3125L33.1951 35.4628L33.1548 35.6176L33.1083 35.7772L33.0526 35.9382L32.9906 36.1008L32.9225 36.265L32.7661 36.5964L32.5771 36.948L32.3959 37.2453L32.2023 37.5303L31.9747 37.8478L31.603 38.3666L31.9871 38.1033L32.9271 37.4374ZM35.8294 34.7147L36.0912 34.5041L36.3498 34.3121L36.5961 34.1479L36.7122 34.0798L36.8237 34.0209L37.008 33.9435L37.2001 33.88L37.3983 33.832L37.6012 33.7963L37.8072 33.7747L38.0147 33.7654L38.2191 33.7669L38.4204 33.7809L38.614 33.8103L38.803 33.8475L38.9826 33.8924L39.1545 33.9435L39.3125 34.0039L39.4581 34.0705L39.5866 34.1448L39.6455 34.1851L39.6981 34.2269L39.4751 34.4855L39.2258 34.7457L38.9532 35.0059L38.6651 35.2599L38.3662 35.5046L38.0596 35.7353L37.7514 35.946L37.4479 36.1365L37.3069 36.2123L37.1567 36.2743L37.0003 36.3223L36.8377 36.3579L36.6688 36.3796L36.4985 36.3889L36.325 36.3858L36.1516 36.3703L35.9781 36.344L35.8078 36.3053L35.639 36.2557L35.4763 36.1953L35.3184 36.1256L35.1666 36.0451L35.0257 35.9553L34.8925 35.8561L34.8352 35.8143L34.781 35.7803L34.7283 35.7539L34.6787 35.7338L34.5053 35.6749L34.4681 35.6579L34.4356 35.6362L34.4217 35.6238L34.4062 35.6099L34.3938 35.5944L34.3814 35.5758L34.3706 35.5557L34.3597 35.534L34.3427 35.4814L34.3303 35.4163L34.321 35.3389L34.29 34.8619L34.273 34.3539L34.2792 33.8506L34.2947 33.6121L34.3194 33.3875L34.3628 33.1583L34.4217 32.9229L34.5796 32.4428L34.7794 31.958L35.0086 31.4857L35.2518 31.0396L35.4949 30.6339L35.7257 30.2823L35.9301 30.0004L35.9626 31.2503L35.9595 31.9518L35.9193 32.6968L35.9038 32.8408L35.8806 32.9895L35.8511 33.1428L35.814 33.2977L35.7706 33.4572L35.721 33.6182L35.6049 33.945L35.4593 34.2935L35.3168 34.5893L35.1604 34.8758L34.9761 35.1964L34.6756 35.7199L35.0102 35.4333L35.419 35.0725L35.6235 34.8913L35.8294 34.7147ZM38.3136 31.4686L38.5227 31.1992L38.7317 30.9467L38.9377 30.7252L39.0353 30.6292L39.1313 30.544L39.2939 30.4217L39.4674 30.3117L39.6501 30.2142L39.8406 30.129L40.0358 30.0562L40.234 29.9958L40.4338 29.9462L40.6336 29.9091L40.8287 29.8874L41.0192 29.875L41.2035 29.8734L41.3816 29.8812L41.5489 29.8998L41.7037 29.9292L41.7765 29.9478L41.8462 29.9695L41.9113 29.9927L41.9717 30.0206L41.8106 30.3272L41.6232 30.6447L41.4141 30.9653L41.1896 31.2843L40.9495 31.5972L40.7017 31.8992L40.4477 32.1826L40.1937 32.4443L40.0729 32.5543L39.9397 32.6518L39.7973 32.7386L39.647 32.8129L39.4875 32.8764L39.3234 32.9291L39.1545 32.9693L38.9826 32.9988L38.8076 33.0158L38.6326 33.022L38.4592 33.0158L38.2873 32.9988L38.1185 32.9709L37.9558 32.9306L37.7979 32.8795L37.6476 32.816L37.5841 32.7897L37.5237 32.7711L37.4664 32.7587L37.4138 32.751L37.231 32.737L37.1923 32.7293L37.1567 32.7169L37.1397 32.7091L37.1226 32.6983L37.1056 32.6875L37.0901 32.672L37.0746 32.6565L37.0607 32.6364L37.0328 32.5899L37.0049 32.531L36.9801 32.4567L36.847 32.0014L36.7215 31.512L36.6193 31.0195L36.5837 30.7825L36.5604 30.558L36.5527 30.3241L36.5589 30.081L36.6084 29.5745L36.6998 29.0526L36.8206 28.5369L36.96 28.0413L37.1102 27.5844L37.2589 27.1849L37.3967 26.8596L37.6972 28.0676L37.8443 28.7506L37.9667 29.4847L37.9822 29.6287L37.993 29.779L37.9961 29.9354L37.993 30.0965L37.9713 30.4294L37.9295 30.7764L37.8629 31.1511L37.787 31.4764L37.6972 31.7939L37.5872 32.1516L37.4076 32.7386L37.6724 32.3746L38.3136 31.4686ZM39.9568 27.3088L40.0931 26.9882L40.234 26.6862L40.378 26.4121L40.4493 26.2913L40.5205 26.1829L40.6475 26.0187L40.7884 25.8638L40.9402 25.7182L41.1028 25.5819L41.2732 25.455L41.4497 25.3403L41.6309 25.235L41.8152 25.1421L41.998 25.0662L42.1792 24.9996L42.3573 24.9454L42.5292 24.9021L42.6949 24.8711L42.8529 24.8556L42.9272 24.8525H42.9985L43.0681 24.8571L43.1332 24.8664L43.0527 25.2087L42.9489 25.568L42.8265 25.9366L42.6856 26.3098L42.5307 26.68L42.365 27.0424L42.19 27.3878L42.0073 27.713L41.9175 27.8539L41.8137 27.9856L41.6975 28.1095L41.5705 28.2256L41.4327 28.3309L41.2871 28.4285L41.1338 28.5152L40.9758 28.5927L40.8117 28.6593L40.6444 28.715L40.4756 28.7599L40.3052 28.7924L40.1364 28.8126L39.9692 28.8203L39.8035 28.8157L39.6439 28.7986L39.5758 28.7909H39.5123L39.455 28.794L39.4023 28.8017L39.2227 28.8405L39.184 28.8451L39.1452 28.8435L39.1267 28.8405L39.1081 28.8358L39.0895 28.8281L39.0709 28.8203L39.0523 28.8079L39.0337 28.794L38.995 28.7568L38.9548 28.7073L38.9129 28.6438L38.6744 28.2426L38.4328 27.8059L38.2145 27.3599L38.1215 27.1431L38.0441 26.9324L37.9806 26.7094L37.9264 26.4725L37.8505 25.9691L37.8118 25.4395L37.8025 24.9067L37.8164 24.3894L37.8505 23.9062L37.8954 23.4772L37.9496 23.1241L38.5335 24.2051L38.8417 24.82L39.1391 25.4937L39.1902 25.6284L39.2351 25.7709L39.2769 25.9196L39.3141 26.076L39.3466 26.2386L39.3745 26.4043L39.4178 26.7512L39.4457 27.1322L39.4519 27.4667L39.4426 27.7997L39.424 28.1761L39.393 28.7924L39.5588 28.3665L39.9568 27.3088ZM40.5561 22.5914L40.5979 22.2429L40.6522 21.9084L40.7141 21.6017L40.7497 21.4639L40.7884 21.3369L40.8659 21.1402L40.9572 20.9466L41.0641 20.7577L41.1834 20.5765L41.3119 20.4015L41.4497 20.2342L41.5938 20.0778L41.744 19.9307L41.8973 19.8006L42.0537 19.6798L42.2086 19.5698L42.3635 19.4738L42.5137 19.3933L42.6593 19.3267L42.7987 19.2787L42.8653 19.2616L42.9303 19.2492L42.9458 19.6024L42.9443 19.9787L42.9272 20.3705L42.8947 20.7716L42.8467 21.1743L42.7863 21.5723L42.7119 21.958L42.6252 22.3265L42.5772 22.4892L42.5137 22.6487L42.4363 22.8051L42.3464 22.9569L42.2442 23.1025L42.1312 23.2418L42.0088 23.3735L41.8772 23.4974L41.7378 23.6135L41.5938 23.7188L41.4435 23.8164L41.2902 23.9016L41.1338 23.9744L40.9758 24.0348L40.8163 24.0828L40.6583 24.1169L40.5918 24.1308L40.5314 24.1509L40.4771 24.1726L40.4276 24.1974L40.2681 24.2903L40.2309 24.3074L40.1953 24.3166L40.1767 24.3197L40.1581 24.3213H40.138L40.1178 24.3182L40.0962 24.312L40.0745 24.3058L40.028 24.2826L39.9754 24.247L39.9181 24.2005L39.5804 23.8923L39.232 23.5516L39.0632 23.375L38.9021 23.1954L38.755 23.0157L38.6233 22.8392L38.501 22.6456L38.3864 22.4365L38.1788 21.9781L37.9977 21.4856L37.8443 20.9792L37.7173 20.4789L37.6198 20.0066L37.5485 19.5822L37.5036 19.2276L38.3539 20.0763L38.8154 20.5657L39.2815 21.1154L39.3667 21.227L39.4488 21.3493L39.5293 21.4794L39.6068 21.6172L39.6827 21.7613L39.7539 21.913L39.8886 22.2305L40.0187 22.5852L40.1147 22.9042L40.1968 23.2248L40.2805 23.5903L40.4183 24.1897L40.4617 23.7312L40.5561 22.5914ZM40.0977 17.9003L40.0513 17.5518L40.0187 17.2142L40.0032 16.9014V16.7574L40.0079 16.6242L40.0327 16.412L40.0729 16.1998L40.1287 15.9876L40.1968 15.777L40.2774 15.571L40.3687 15.3697L40.4679 15.1761L40.5747 14.9903L40.6909 14.8184L40.8101 14.6573L40.9325 14.5071L41.0564 14.3692L41.1803 14.2469L41.3042 14.14L41.4265 14.0533L41.4869 14.0177L41.5458 13.9867L41.6495 14.3212L41.7424 14.6836L41.823 15.0662L41.8927 15.4611L41.9484 15.8622L41.9887 16.2633L42.015 16.6582L42.0243 17.0377L42.0197 17.208L41.998 17.3799L41.9624 17.5518L41.9144 17.7238L41.8524 17.8941L41.7781 18.0614L41.6929 18.224L41.5969 18.382L41.4931 18.5337L41.38 18.6793L41.2608 18.8156L41.1338 18.9426L41.0006 19.0588L40.8643 19.1641L40.7234 19.257L40.5794 19.336L40.519 19.37L40.4648 19.4057L40.4198 19.4444L40.378 19.4816L40.2479 19.6194L40.217 19.6457L40.1844 19.6658L40.1659 19.6736L40.1488 19.6813L40.1287 19.686L40.1086 19.6891L40.0869 19.6906L40.0636 19.6891L40.0125 19.6813L39.9552 19.6628L39.8871 19.6333L39.486 19.4366L39.0647 19.2105L38.8587 19.0897L38.659 18.9643L38.4716 18.8357L38.3012 18.7041L38.1355 18.5539L37.9729 18.3866L37.6569 18.0072L37.3596 17.5859L37.0839 17.1445L36.8377 16.7001L36.6239 16.2742L36.4489 15.887L36.3173 15.5586L37.3472 16.1255L37.9156 16.4616L38.2067 16.6489L38.5025 16.8534L38.6125 16.937L38.7209 17.0299L38.8309 17.1306L38.9408 17.2406L39.0492 17.3583L39.1561 17.4822L39.3667 17.7485L39.5804 18.0521L39.7523 18.3293L39.9103 18.6143L40.0838 18.941L40.3656 19.4785L40.2929 19.0231L40.0977 17.9003ZM38.2795 13.3177L38.1634 13.0172L38.0627 12.7229L37.9806 12.4457L37.9496 12.3172L37.9249 12.1964L37.9016 11.9997L37.8923 11.7984L37.897 11.5939L37.9125 11.3895L37.9403 11.1835L37.9791 10.9806L38.0271 10.7824L38.0828 10.5888L38.1494 10.4061L38.2222 10.2311L38.2996 10.0653L38.3802 9.91202L38.4654 9.76954L38.5536 9.64409L38.645 9.53414L38.6915 9.48767L38.7379 9.44431L38.9021 9.71843L39.0632 10.0204L39.218 10.3426L39.3652 10.6802L39.5015 11.0271L39.6238 11.3756L39.7322 11.7225L39.822 12.0601L39.8546 12.215L39.8716 12.3745L39.8778 12.5371L39.87 12.7044L39.8515 12.8716L39.8205 13.0404L39.7787 13.2077L39.7276 13.3734L39.6672 13.536L39.5959 13.694L39.5185 13.8473L39.4318 13.9929L39.3388 14.1307L39.2382 14.2593L39.1313 14.377L39.0198 14.4838L38.9718 14.5303L38.9331 14.5752L38.899 14.6201L38.8711 14.665L38.7828 14.8215L38.7612 14.8524L38.7364 14.8803L38.7225 14.8912L38.707 14.902L38.6915 14.9113L38.6744 14.919L38.6543 14.9252L38.6342 14.9299L38.5862 14.9361L38.5304 14.9345L38.4638 14.9252L38.0611 14.8493L37.6353 14.7533L37.4231 14.696L37.2171 14.6341L37.022 14.5659L36.8408 14.4916L36.6596 14.3987L36.4784 14.2887L36.1144 14.0285L35.7567 13.7265L35.4159 13.3982L35.1 13.0621L34.8166 12.7338L34.5765 12.4318L34.3876 12.1701L35.433 12.4178L36.0137 12.5774L36.3157 12.6718L36.6239 12.7802L36.7401 12.8283L36.8593 12.884L36.9786 12.9475L37.1009 13.0172L37.2217 13.0946L37.3456 13.1798L37.468 13.2696L37.5903 13.3657L37.8474 13.584L38.0611 13.79L38.2656 14.0053L38.4901 14.2546L38.8587 14.665L38.6961 14.2748L38.2795 13.3177ZM35.6978 9.70604L35.498 9.46135L35.3153 9.2182L35.1573 8.98434L35.0892 8.87283L35.0319 8.76597L34.9513 8.58787L34.8832 8.40202L34.8259 8.20688L34.781 8.00555L34.7469 7.80267L34.7221 7.59669L34.7082 7.39226L34.7051 7.18938L34.7144 6.99269L34.7314 6.8022L34.7546 6.6179L34.7872 6.44444L34.8259 6.28028L34.8723 6.13005L34.925 5.99532L34.956 5.93492L34.9869 5.87761L35.2239 6.08049L35.4655 6.30971L35.7086 6.56215L35.9471 6.83007L36.1779 7.11194L36.3978 7.4L36.6023 7.69116L36.7881 7.98077L36.864 8.11551L36.9275 8.26109L36.9817 8.41441L37.0235 8.57393L37.0545 8.73964L37.0762 8.91L37.0855 9.08191L37.087 9.25692L37.0762 9.43192L37.0576 9.60693L37.0282 9.77883L36.9894 9.94609L36.9414 10.1087L36.8841 10.2651L36.8191 10.4154L36.7447 10.5547L36.7138 10.6151L36.689 10.6724L36.6704 10.7266L36.6565 10.7778L36.6193 10.9559L36.6084 10.993L36.593 11.0271L36.5837 11.0426L36.5728 11.0581L36.5604 11.072L36.545 11.086L36.5295 11.0983L36.5109 11.1107L36.4675 11.1324L36.4133 11.1494L36.3483 11.1649L35.944 11.2331L35.512 11.2888L35.2951 11.309L35.0814 11.3214L34.877 11.3245L34.6834 11.3167L34.4852 11.2919L34.2792 11.2501L33.8579 11.1293L33.4289 10.9667L33.0092 10.7747L32.6097 10.5656L32.2442 10.3534L31.9267 10.149L31.6711 9.96778L32.7351 9.84078L33.3329 9.78967L33.6473 9.77574L33.971 9.77109L34.0949 9.77574L34.2234 9.78658L34.3566 9.80516L34.4929 9.82994L34.6323 9.86246L34.7732 9.89963L34.9157 9.943L35.0597 9.99101L35.3679 10.1087L35.6312 10.228L35.8883 10.3627L36.1764 10.5207L36.6456 10.7809L36.3761 10.468L35.6978 9.70604ZM32.7196 7.36593L32.5013 7.18473L32.2984 7.00043L32.1187 6.81923L32.0397 6.7325L31.97 6.64733L31.8694 6.50329L31.7795 6.34842L31.6975 6.18426L31.6247 6.01235L31.5612 5.8358L31.507 5.65615L31.4621 5.47495L31.4264 5.29375L31.4032 5.11564L31.3877 4.94064L31.38 4.77183V4.60921L31.3893 4.45589L31.4063 4.31186L31.4342 4.18022L31.4497 4.12137L31.4698 4.06406L31.7145 4.2019L31.9685 4.36297L32.2271 4.54417L32.4842 4.73931L32.7367 4.94838L32.9798 5.16675L33.2106 5.38977L33.4227 5.61433L33.5126 5.72119L33.5931 5.83889L33.6659 5.96744L33.7294 6.10218L33.7836 6.24621L33.8285 6.39488L33.8657 6.54821L33.8951 6.70463L33.9137 6.8626L33.923 7.02366L33.9245 7.18318L33.9168 7.34115L33.8997 7.49602L33.8734 7.6478L33.8393 7.79338L33.7944 7.93276L33.7758 7.99161L33.7635 8.04891L33.7557 8.10002L33.7511 8.14958L33.7464 8.31684L33.7418 8.35246L33.734 8.38499L33.7278 8.40202L33.7201 8.41751L33.7108 8.433L33.7015 8.44694L33.6876 8.46242L33.6736 8.47636L33.638 8.50269L33.5931 8.52902L33.5358 8.55535L33.1842 8.69163L32.8063 8.82327L32.6143 8.88213L32.4254 8.93323L32.2411 8.9735L32.0661 9.00293L31.8833 9.01686L31.6928 9.01841L31.2948 8.98899L30.8844 8.92239L30.4771 8.82947L30.0853 8.71641L29.7229 8.59406L29.4054 8.47017L29.1467 8.35556L30.0822 8.04272L30.6103 7.88475L30.8906 7.81196L31.1802 7.74846L31.2917 7.72988L31.4094 7.71594L31.5318 7.7082L31.6572 7.7051L31.7873 7.70665L31.9205 7.71439L32.0552 7.72523L32.1931 7.74227L32.4889 7.79028L32.7444 7.84913L32.9953 7.92037L33.2787 8.0102L33.7418 8.15578L33.4491 7.92502L32.7196 7.36593ZM29.5029 5.66389L29.3186 5.50902L29.1467 5.3526L28.9934 5.19927L28.9268 5.12494L28.868 5.05369L28.7828 4.93135L28.7053 4.79971L28.6357 4.66187L28.5753 4.51629L28.521 4.36606L28.4746 4.21274L28.4359 4.05942L28.4064 3.90609L28.3879 3.75587L28.3739 3.60719L28.3677 3.46471V3.32687L28.3755 3.19678L28.391 3.07443L28.4126 2.96447L28.4266 2.91337L28.4436 2.86536L28.6511 2.98151L28.8664 3.1178L29.0848 3.27112L29.3031 3.43683L29.5169 3.61494L29.7229 3.79923L29.918 3.98818L30.0976 4.17867L30.1735 4.27004L30.2417 4.36916L30.3036 4.47757L30.3578 4.59218L30.4043 4.71298L30.443 4.83842L30.474 4.96852L30.4972 5.10171L30.5142 5.23644L30.5235 5.37273V5.50747L30.5173 5.64221L30.5034 5.77385L30.4817 5.90239L30.4507 6.02629L30.4136 6.14399L30.3981 6.1951L30.3873 6.24156L30.3811 6.28647L30.378 6.32674L30.3733 6.46922L30.3702 6.49865L30.3625 6.52807L30.3578 6.54046L30.3516 6.5544L30.3439 6.56679L30.3346 6.57918L30.3238 6.59157L30.3114 6.60396L30.2819 6.62719L30.2432 6.64887L30.1952 6.67056L29.8963 6.78671L29.5757 6.89822L29.4131 6.94778L29.252 6.98959L29.0972 7.02521L28.9485 7.04999L28.7936 7.06238L28.6326 7.06393L28.2949 7.03915L27.948 6.98185L27.6011 6.90286L27.2697 6.80684L26.963 6.70308L26.6951 6.59777L26.4752 6.5002L27.2666 6.23537L27.7142 6.10218L27.9511 6.04023L28.1974 5.98602L28.2918 5.97054L28.3925 5.95815L28.4963 5.95195L28.6031 5.94885L28.7131 5.95195L28.8246 5.95815L29.0554 5.98138L29.3062 6.02164L29.4162 6.04642L29.5231 6.07275L29.7368 6.13315L29.9768 6.20904L30.3687 6.33139L30.1209 6.13625L29.5029 5.66389ZM20.5823 40.7284L20.2122 40.6742L19.8544 40.6386L19.6841 40.6277L19.5214 40.6231L19.3697 40.6246L19.2272 40.6324L19.0026 40.6649L18.7781 40.7176L18.5535 40.7888L18.332 40.8755L18.1137 40.9778L17.9015 41.0924L17.6971 41.2194L17.5019 41.3541L17.3223 41.4997L17.1519 41.6499L16.9924 41.8032L16.8484 41.9581L16.7198 42.1145L16.6083 42.2694L16.5169 42.4227L16.4798 42.497L16.4472 42.5714L16.8034 42.6968L17.1891 42.8083L17.5964 42.9044L18.0161 42.9864L18.4435 43.0515L18.8694 43.0979L19.2876 43.1243L19.6903 43.132L19.8715 43.1243L20.0527 43.0964L20.2354 43.0499L20.4182 42.9864L20.5963 42.9075L20.7728 42.8145L20.9463 42.7061L21.112 42.5869L21.2715 42.4552L21.4248 42.3127L21.5673 42.1625L21.702 42.003L21.8244 41.8373L21.9344 41.6654L22.0304 41.4904L22.1125 41.3107L22.1481 41.2348L22.1852 41.1682L22.224 41.1109L22.2642 41.0598L22.4083 40.8957L22.4361 40.857L22.4578 40.8151L22.4656 40.795L22.4733 40.7718L22.4779 40.7485L22.481 40.7222V40.668L22.4718 40.6045L22.4516 40.5317L22.4206 40.4481L22.2069 39.951L21.9622 39.4306L21.6958 38.9288L21.558 38.698L21.4171 38.4874L21.256 38.283L21.0764 38.0832L20.6706 37.6945L20.2199 37.329L19.7476 36.9929L19.2737 36.6909L18.8199 36.4307L18.4064 36.217L18.0564 36.0575L18.6681 37.3321L19.0321 38.0336L19.4549 38.7584L19.5447 38.8932L19.6438 39.0295L19.7538 39.1642L19.8715 39.2989L19.9969 39.4321L20.1285 39.5638L20.4135 39.8209L20.7387 40.0826L21.0345 40.2932L21.3396 40.4884L21.6881 40.699L22.2596 41.0443L21.7764 40.9592L20.5823 40.7284ZM16.5727 39.1596L16.2444 39.0388L15.9253 38.935L15.772 38.8932L15.6264 38.856L15.487 38.8281L15.3569 38.808L15.1463 38.7941L14.9326 38.7987L14.7173 38.8204L14.5005 38.8576L14.2852 38.9071L14.0731 38.9706L13.8671 39.0465L13.6673 39.1317L13.4799 39.2293L13.2987 39.333L13.1299 39.4414L12.9735 39.5545L12.8294 39.6722L12.704 39.7914L12.5956 39.9122L12.5491 39.9726L12.5073 40.0346L12.8109 40.2173L13.1423 40.3939L13.4969 40.5596L13.8655 40.7145L14.2419 40.8554L14.6229 40.9809L14.9976 41.0862L15.3631 41.1713L15.5289 41.1992L15.6992 41.2085L15.8727 41.2023L16.0492 41.1806L16.2242 41.1435L16.4008 41.0924L16.5758 41.0273L16.7461 40.9499L16.9134 40.8616L17.076 40.7625L17.2309 40.6525L17.3796 40.5348L17.5174 40.4078L17.646 40.2731L17.7637 40.1322L17.8674 39.985L17.9123 39.9231L17.9572 39.8689L18.0022 39.824L18.0471 39.7852L18.205 39.6629L18.236 39.6335L18.2639 39.6009L18.2747 39.5824L18.2856 39.5638L18.2933 39.5421L18.3011 39.5204L18.3088 39.4693L18.3104 39.4104L18.3042 39.3408L18.2902 39.2587L18.1772 38.7662L18.0409 38.2443L17.8829 37.7363L17.7946 37.4993L17.7017 37.281L17.5886 37.0641L17.4586 36.8473L17.1535 36.4152L16.805 35.9955L16.4302 35.5991L16.0492 35.232L15.6791 34.9083L15.3384 34.6342L15.0472 34.4205L15.3941 35.6982L15.6078 36.4075L15.8727 37.1478L15.9315 37.2887L15.9997 37.4312L16.0771 37.5752L16.1607 37.7192L16.2537 37.8648L16.3528 38.0104L16.5696 38.3L16.8205 38.602L17.0559 38.8514L17.3006 39.0868L17.5825 39.3454L18.0455 39.7698L17.6196 39.5978L16.5727 39.1596ZM13.0695 37.4374L12.7721 37.2469L12.4779 37.0734L12.3369 36.9975L12.2007 36.9294L12.0706 36.8706L11.9467 36.8225L11.7438 36.7621L11.5347 36.7172L11.3194 36.6894L11.1011 36.677H10.8812L10.6612 36.6925L10.4444 36.7188L10.2322 36.7575L10.0294 36.8102L9.83422 36.8721L9.64837 36.9402L9.47182 37.0161L9.31075 37.0982L9.16362 37.1865L9.03508 37.281L8.97778 37.329L8.92512 37.3801L9.18686 37.6263L9.47801 37.8741L9.79086 38.1157L10.1223 38.3511L10.4645 38.5741L10.8115 38.7817L11.1584 38.9691L11.4991 39.1348L11.6555 39.1983L11.8212 39.2463L11.9916 39.2788L12.1681 39.2974L12.3478 39.3005L12.529 39.2896L12.7117 39.2664L12.8945 39.2293L13.0757 39.1797L13.2538 39.1193L13.4257 39.048L13.593 38.9644L13.754 38.8715L13.9042 38.7693L14.0467 38.6578L14.1768 38.537L14.2326 38.4859L14.2868 38.444L14.3394 38.41L14.3905 38.3821L14.5686 38.2985L14.6058 38.2768L14.6383 38.2505L14.6523 38.235L14.6662 38.2195L14.6786 38.2009L14.6894 38.1808L14.6987 38.1575L14.708 38.1328L14.7204 38.0755L14.7282 38.0058L14.7297 37.9221L14.7142 37.4142L14.6817 36.8752L14.6244 36.3409L14.5841 36.09L14.5346 35.8546L14.4664 35.6176L14.3797 35.376L14.1644 34.8851L13.9042 34.3973L13.6131 33.9233L13.3111 33.4804L13.0122 33.0793L12.7319 32.7355L12.4872 32.4614L12.5801 33.7871L12.6544 34.5289L12.7706 35.3125L12.8016 35.4628L12.8418 35.6176L12.8883 35.7772L12.944 35.9382L13.006 36.1008L13.0741 36.265L13.2306 36.5964L13.4195 36.948L13.6007 37.2453L13.7943 37.5303L14.0204 37.8478L14.3921 38.3666L14.0096 38.1033L13.0695 37.4374ZM10.1656 34.7147L9.90391 34.5041L9.64682 34.3121L9.52138 34.2253L9.39903 34.1479L9.28288 34.0798L9.17137 34.0209L8.98862 33.9435L8.79658 33.88L8.59834 33.832L8.39391 33.7963L8.18793 33.7747L7.98195 33.7654L7.77597 33.7669L7.57464 33.7809L7.38105 33.8103L7.19366 33.8475L7.01246 33.8924L6.8421 33.9435L6.68258 34.0039L6.537 34.0705L6.40846 34.1448L6.3496 34.1851L6.29695 34.2269L6.51996 34.4855L6.76931 34.7457L7.04188 35.0059L7.32994 35.2599L7.63039 35.5046L7.93704 35.7353L8.24369 35.946L8.54878 36.1365L8.68972 36.2123L8.83994 36.2743L8.99636 36.3223L9.15898 36.3579L9.32624 36.3796L9.49815 36.3889L9.67006 36.3858L9.84506 36.3703L10.017 36.344L10.1889 36.3053L10.3577 36.2557L10.5203 36.1953L10.6783 36.1256L10.83 36.0451L10.971 35.9553L11.1042 35.8561L11.1615 35.8143L11.2157 35.7803L11.2683 35.7539L11.3179 35.7338L11.4929 35.6749L11.5285 35.6579L11.561 35.6362L11.575 35.6238L11.5905 35.6099L11.6029 35.5944L11.6152 35.5758L11.6261 35.5557L11.6369 35.534L11.654 35.4814L11.6664 35.4163L11.6756 35.3389L11.7066 34.8619L11.7237 34.3539L11.7175 33.8506L11.702 33.6121L11.6772 33.3875L11.6338 33.1583L11.575 32.9229L11.417 32.4428L11.2172 31.958L10.988 31.4857L10.7449 31.0396L10.5002 30.6339L10.2694 30.2823L10.065 30.0004L10.034 31.2503L10.0371 31.9518L10.0758 32.6968L10.0913 32.8408L10.1145 32.9895L10.144 33.1428L10.1811 33.2977L10.2245 33.4572L10.2756 33.6182L10.3918 33.945L10.5373 34.2935L10.6798 34.5893L10.8362 34.8758L11.019 35.1964L11.321 35.7199L10.9865 35.4333L10.1656 34.7147ZM7.6815 31.4686L7.47242 31.1992L7.26335 30.9467L7.05892 30.7252L6.9598 30.6292L6.86533 30.544L6.70271 30.4217L6.52926 30.3117L6.34651 30.2142L6.15602 30.129L5.96088 30.0562L5.76264 29.9958L5.56286 29.9462L5.36307 29.9091L5.16793 29.8874L4.97744 29.875L4.79159 29.8734L4.61504 29.8812L4.44778 29.8998L4.29291 29.9292L4.22012 29.9478L4.15043 29.9695L4.08538 29.9927L4.02498 30.0206L4.18605 30.3272L4.37344 30.6447L4.58097 30.9653L4.80708 31.2843L5.04558 31.5972L5.29338 31.8992L5.54737 32.1826L5.80291 32.4443L5.92371 32.5543L6.05535 32.6518L6.19783 32.7386L6.3496 32.8129L6.50757 32.8764L6.67174 32.9291L6.84055 32.9693L7.014 32.9988L7.18746 33.0158L7.36247 33.022L7.53592 33.0158L7.70783 32.9988L7.87664 32.9709L8.0408 32.9306L8.19877 32.8795L8.349 32.816L8.4125 32.7897L8.4729 32.7711L8.5302 32.7587L8.58286 32.751L8.7656 32.737L8.80432 32.7293L8.83994 32.7169L8.85698 32.7091L8.87401 32.6983L8.89105 32.6875L8.90654 32.672L8.92202 32.6565L8.93596 32.6364L8.96384 32.5899L8.99172 32.531L9.0165 32.4567L9.14814 32.0014L9.27358 31.512L9.3758 31.0195L9.41297 30.7825L9.4362 30.558L9.44394 30.3241L9.43775 30.081L9.38664 29.5745L9.29681 29.0526L9.17601 28.5369L9.03508 28.0413L8.88486 27.5844L8.73618 27.1849L8.59834 26.8596L8.29944 28.0676L8.15076 28.7506L8.02841 29.4847L8.01293 29.6287L8.00364 29.779L7.99899 29.9354L8.00209 30.0965L8.00983 30.2606L8.02377 30.4294L8.06713 30.7764L8.13373 31.1511L8.20961 31.4764L8.29944 31.7939L8.4094 32.1516L8.58905 32.7386L8.32422 32.3746L7.6815 31.4686ZM6.03831 27.3088L5.90357 26.9882L5.76264 26.6862L5.61861 26.4121L5.54737 26.2913L5.47613 26.1829L5.34913 26.0187L5.2082 25.8638L5.05643 25.7182L4.89381 25.5819L4.7219 25.455L4.54535 25.3403L4.36415 25.235L4.1814 25.1421L3.99865 25.0662L3.81745 24.9996L3.63935 24.9454L3.46744 24.9021L3.30173 24.8711L3.14376 24.8556L3.06942 24.8525H2.99818L2.93004 24.8571L2.86499 24.8664L2.94552 25.2087L3.04774 25.568L3.17009 25.9366L3.31102 26.3098L3.46434 26.68L3.63006 27.0424L3.80506 27.3878L3.98781 27.713L4.07764 27.8539L4.1814 27.9856L4.29755 28.1095L4.42455 28.2256L4.56238 28.3309L4.70796 28.4285L4.86129 28.5152L5.02081 28.5927L5.18497 28.6593L5.35223 28.715L5.52104 28.7599L5.6914 28.7924L5.86021 28.8126L6.02747 28.8203L6.19318 28.8157L6.3527 28.7986L6.42085 28.7909H6.48434L6.54165 28.794L6.5943 28.8017L6.77395 28.8405L6.81267 28.8451L6.85139 28.8435L6.86997 28.8405L6.88856 28.8358L6.90714 28.8281L6.92573 28.8203L6.94431 28.8079L6.9629 28.794L7.00162 28.7568L7.04188 28.7073L7.0837 28.6438L7.3222 28.2426L7.5638 27.8059L7.78217 27.3599L7.87509 27.1431L7.95253 26.9324L8.01603 26.7094L8.07023 26.4725L8.14457 25.9691L8.18484 25.4395L8.19413 24.9067L8.18019 24.3894L8.14612 23.9062L8.09966 23.4772L8.047 23.1241L7.46313 24.2051L7.15339 24.82L6.85604 25.4937L6.80648 25.6284L6.76002 25.7709L6.7182 25.9196L6.68258 26.076L6.65006 26.2386L6.62218 26.4043L6.57881 26.7512L6.55094 27.1322L6.54474 27.4667L6.55404 27.7997L6.57262 28.1761L6.60359 28.7924L6.43633 28.3665L6.03831 27.3088ZM5.44051 22.5914L5.39714 22.2429L5.34449 21.9084L5.28099 21.6017L5.24537 21.4639L5.20665 21.3369L5.13076 21.1402L5.03784 20.9466L4.93098 20.7577L4.81328 20.5765L4.68473 20.4015L4.5469 20.2342L4.40287 20.0778L4.25264 19.9307L4.09777 19.8006L3.9429 19.6798L3.78648 19.5698L3.63315 19.4738L3.48293 19.3933L3.33735 19.3267L3.19796 19.2787L3.13137 19.2616L3.06632 19.2492L3.05084 19.6024L3.05239 19.9787L3.06942 20.3705L3.10194 20.7716L3.14841 21.1743L3.21035 21.5723L3.28314 21.958L3.36987 22.3265L3.41788 22.4892L3.48138 22.6487L3.55882 22.8051L3.65019 22.9569L3.75241 23.1025L3.86546 23.2418L3.98781 23.3735L4.11945 23.4974L4.25884 23.6135L4.40287 23.7188L4.55309 23.8164L4.70642 23.9016L4.86284 23.9744L5.02081 24.0348L5.18032 24.0828L5.33829 24.1169L5.40489 24.1308L5.46529 24.1509L5.51949 24.1726L5.5675 24.1974L5.72857 24.2903L5.76419 24.3074L5.80136 24.3166L5.81994 24.3197L5.83853 24.3213H5.85866L5.87879 24.3182L5.89893 24.312L5.92061 24.3058L5.96862 24.2826L6.01973 24.247L6.07703 24.2005L6.41465 23.8923L6.76311 23.5516L6.93192 23.375L7.09299 23.1954L7.24012 23.0157L7.37176 22.8392L7.49411 22.6456L7.60871 22.4365L7.81779 21.9781L7.99899 21.4856L8.15231 20.9792L8.27776 20.4789L8.37688 20.0066L8.44812 19.5822L8.49303 19.2276L7.64278 20.0763L7.18127 20.5657L6.71355 21.1154L6.62992 21.227L6.54629 21.3493L6.46731 21.4794L6.38987 21.6172L6.31398 21.7613L6.24119 21.913L6.10646 22.2305L5.97791 22.5852L5.88189 22.9042L5.79981 23.2248L5.71618 23.5903L5.57834 24.1897L5.53498 23.7312L5.44051 22.5914ZM5.89893 17.9003L5.94539 17.5518L5.97791 17.2142L5.9934 16.9014V16.7574L5.98721 16.6242L5.96243 16.412L5.92216 16.1998L5.86795 15.9876L5.79981 15.777L5.71928 15.571L5.6279 15.3697L5.52724 15.1761L5.42037 14.9903L5.30577 14.8184L5.18652 14.6573L5.06417 14.5071L4.94027 14.3692L4.81637 14.2469L4.69248 14.14L4.57013 14.0533L4.50973 14.0177L4.45088 13.9867L4.34711 14.3212L4.25419 14.6836L4.17211 15.0662L4.10396 15.4611L4.04821 15.8622L4.0064 16.2633L3.98007 16.6582L3.97077 17.0377L3.97697 17.208L3.9971 17.3799L4.03272 17.5518L4.08228 17.7238L4.14423 17.8941L4.21857 18.0614L4.30375 18.224L4.39822 18.382L4.50353 18.5337L4.61659 18.6793L4.73584 18.8156L4.86284 18.9426L4.99448 19.0588L5.13231 19.1641L5.2717 19.257L5.41573 19.336L5.47768 19.37L5.53033 19.4057L5.57679 19.4444L5.61706 19.4816L5.7487 19.6194L5.77968 19.6457L5.8122 19.6658L5.82924 19.6736L5.84782 19.6813L5.86641 19.686L5.88654 19.6891L5.90822 19.6906L5.93145 19.6891L5.98256 19.6813L6.03986 19.6628L6.108 19.6333L6.51067 19.4366L6.93192 19.2105L7.1379 19.0897L7.33769 18.9643L7.52508 18.8357L7.69544 18.7041L7.86115 18.5539L8.02377 18.3866L8.33971 18.0072L8.63706 17.5859L8.91118 17.1445L9.15743 16.7001L9.37115 16.2742L9.54771 15.887L9.67935 15.5586L8.64945 16.1255L8.08107 16.4616L7.78836 16.6489L7.49256 16.8534L7.3826 16.937L7.27419 17.0299L7.16423 17.1306L7.05427 17.2406L6.94586 17.3583L6.839 17.4822L6.62992 17.7485L6.4162 18.0521L6.24429 18.3293L6.08632 18.6143L5.91287 18.941L5.62945 19.4785L5.70224 19.0231L5.89893 17.9003ZM7.71557 13.3177L7.83173 13.0172L7.93394 12.7229L8.01603 12.4457L8.047 12.3172L8.07023 12.1964L8.09346 11.9997L8.10275 11.7984L8.09966 11.5939L8.08262 11.3895L8.05629 11.1835L8.01757 10.9806L7.96956 10.7824L7.91381 10.5888L7.84721 10.4061L7.77443 10.2311L7.69699 10.0653L7.61646 9.91202L7.53128 9.76954L7.443 9.64409L7.35162 9.53414L7.30516 9.48767L7.2587 9.44431L7.09454 9.71843L6.93347 10.0204L6.7786 10.3426L6.63147 10.6802L6.49518 11.0271L6.37284 11.3756L6.26443 11.7225L6.1746 12.0601L6.14208 12.215L6.12504 12.3745L6.11885 12.5371L6.12659 12.7044L6.14517 12.8716L6.17615 13.0404L6.21796 13.2077L6.26907 13.3734L6.32947 13.536L6.39916 13.694L6.47815 13.8473L6.56488 13.9929L6.6578 14.1307L6.75692 14.2593L6.86378 14.377L6.97529 14.4838L7.0233 14.5303L7.06356 14.5752L7.09609 14.6201L7.12551 14.665L7.21379 14.8215L7.23547 14.8524L7.26025 14.8803L7.27419 14.8912L7.28813 14.902L7.30516 14.9113L7.3222 14.919L7.34078 14.9252L7.36247 14.9299L7.40893 14.9361L7.46623 14.9345L7.53282 14.9252L7.93549 14.8493L8.36139 14.7533L8.57201 14.696L8.77799 14.6341L8.97313 14.5659L9.15433 14.4916L9.33553 14.3987L9.51673 14.2887L9.88223 14.0285L10.2384 13.7265L10.5807 13.3982L10.8966 13.0621L11.1801 12.7338L11.4201 12.4318L11.609 12.1701L10.5637 12.4178L9.98135 12.5774L9.67935 12.6718L9.37115 12.7802L9.255 12.8283L9.1373 12.884L9.0165 12.9475L8.8957 13.0172L8.77335 13.0946L8.64945 13.1798L8.5271 13.2696L8.40475 13.3657L8.14921 13.584L7.93549 13.79L7.73106 14.0053L7.5065 14.2546L7.1379 14.665L7.30052 14.2748L7.71557 13.3177ZM10.2973 9.70604L10.4971 9.46135L10.6798 9.2182L10.8393 8.98434L10.9075 8.87283L10.9648 8.76597L11.0453 8.58787L11.1135 8.40202L11.1708 8.20688L11.2157 8.00555L11.2497 7.80267L11.2745 7.59669L11.2885 7.39226L11.2916 7.18938L11.2823 6.99269L11.2652 6.8022L11.242 6.6179L11.2095 6.44444L11.1708 6.28028L11.1243 6.13005L11.0716 5.99532L11.0407 5.93492L11.0097 5.87761L10.7727 6.08049L10.5311 6.30971L10.288 6.56215L10.0495 6.83007L9.81873 7.11194L9.59881 7.4L9.39438 7.69116L9.20854 7.98077L9.13265 8.11551L9.0676 8.26109L9.01495 8.41441L8.97313 8.57393L8.94061 8.73964L8.92048 8.91L8.90964 9.08191V9.25692L8.91893 9.43192L8.93906 9.60693L8.96849 9.77883L9.0072 9.94609L9.05521 10.1087L9.11097 10.2651L9.17756 10.4154L9.2519 10.5547L9.28288 10.6151L9.30766 10.6724L9.32624 10.7266L9.34018 10.7778L9.37735 10.9559L9.38819 10.993L9.40368 11.0271L9.41297 11.0426L9.42381 11.0581L9.4362 11.072L9.45169 11.086L9.46717 11.0983L9.48576 11.1107L9.52912 11.1324L9.58333 11.1494L9.64837 11.1649L10.0526 11.2331L10.4847 11.2888L10.7015 11.309L10.9152 11.3214L11.1197 11.3245L11.3132 11.3167L11.5115 11.2919L11.7175 11.2501L12.1387 11.1293L12.5677 10.9667L12.9874 10.7747L13.3854 10.5656L13.7509 10.3534L14.0684 10.149L14.324 9.96778L13.26 9.84078L12.6622 9.78967L12.3478 9.77574L12.0241 9.77109L11.9002 9.77574L11.7717 9.78658L11.64 9.80516L11.5037 9.82994L11.3644 9.86246L11.2234 9.89963L11.0809 9.943L10.9369 9.99101L10.6287 10.1087L10.3654 10.228L10.1083 10.3627L9.82028 10.5207L9.35102 10.7809L9.6205 10.468L10.2973 9.70604ZM13.2755 7.36593L13.4938 7.18473L13.6967 7.00043L13.8779 6.81923L13.9554 6.7325L14.025 6.64733L14.1257 6.50329L14.2171 6.34842L14.2992 6.18426L14.372 6.01235L14.4355 5.8358L14.4897 5.65615L14.5346 5.47495L14.5702 5.29375L14.5934 5.11564L14.6074 4.94064L14.6151 4.77183V4.60921L14.6058 4.45589L14.5888 4.31186L14.5625 4.18022L14.5454 4.12137L14.5268 4.06406L14.2821 4.2019L14.0281 4.36297L13.7695 4.54417L13.5124 4.73931L13.26 4.94838L13.0168 5.16675L12.7861 5.38977L12.5739 5.61433L12.4841 5.72119L12.4035 5.83889L12.3308 5.96744L12.2673 6.10218L12.213 6.24621L12.1681 6.39488L12.131 6.54821L12.1015 6.70463L12.083 6.8626L12.0721 7.02366L12.0706 7.18318L12.0783 7.34115L12.0953 7.49602L12.1217 7.6478L12.1557 7.79338L12.2007 7.93276L12.2192 7.99161L12.2316 8.04891L12.2409 8.10002L12.244 8.14958L12.2502 8.31684L12.2549 8.35246L12.2626 8.38499L12.2688 8.40202L12.2765 8.41751L12.2843 8.433L12.2951 8.44694L12.3075 8.46242L12.3215 8.47636L12.3571 8.50269L12.4035 8.52902L12.4593 8.55535L12.8109 8.69163L13.1903 8.82327L13.3823 8.88213L13.5713 8.93323L13.7556 8.9735L13.9306 9.00293L14.1133 9.01686L14.3038 9.01841L14.7018 8.98899L15.1122 8.92239L15.5196 8.82947L15.9114 8.71641L16.2722 8.59406L16.5897 8.47017L16.8484 8.35556L15.9145 8.04272L15.3864 7.88475L15.1061 7.81196L14.8149 7.74846L14.7034 7.72988L14.5872 7.71594L14.4649 7.7082L14.3394 7.7051L14.2093 7.70665L14.0762 7.71439L13.9414 7.72523L13.8036 7.74227L13.5078 7.79028L13.2522 7.84913L13.0013 7.92037L12.7179 8.0102L12.2549 8.15578L12.546 7.92502L13.2755 7.36593ZM16.4937 5.66389L16.678 5.50902L16.8515 5.3526L17.0032 5.19927L17.0698 5.12494L17.1287 5.05369L17.2139 4.93135L17.2913 4.79971L17.3594 4.66187L17.4214 4.51629L17.4756 4.36606L17.5205 4.21274L17.5592 4.05942L17.5886 3.90609L17.6088 3.75587L17.6212 3.60719L17.6289 3.46471V3.32687L17.6212 3.19678L17.6057 3.07443L17.584 2.96447L17.5701 2.91337L17.553 2.86536L17.3455 2.98151L17.1302 3.1178L16.9119 3.27112L16.6935 3.43683L16.4798 3.61494L16.2722 3.79923L16.0771 3.98818L15.8974 4.17867L15.8216 4.27004L15.7534 4.36916L15.6915 4.47757L15.6373 4.59218L15.5924 4.71298L15.5521 4.83842L15.5211 4.96852L15.4979 5.10171L15.4808 5.23644L15.4731 5.37273L15.4716 5.50747L15.4777 5.64221L15.4932 5.77385L15.5149 5.90239L15.5459 6.02629L15.5831 6.14399L15.5985 6.1951L15.6094 6.24156L15.6156 6.28647L15.6187 6.32674L15.6233 6.46922L15.6264 6.49865L15.6342 6.52807L15.6388 6.54046L15.645 6.5544L15.6528 6.56679L15.662 6.57918L15.6729 6.59157L15.6853 6.60396L15.7147 6.62719L15.7534 6.64887L15.8014 6.67056L16.0988 6.78671L16.4209 6.89822L16.5835 6.94778L16.743 6.98959L16.8995 7.02521L17.0481 7.04999L17.203 7.06238L17.3641 7.06393L17.7017 7.03915L18.0486 6.98185L18.394 6.90286L18.727 6.80684L19.0336 6.70308L19.3015 6.59777L19.5214 6.5002L18.7301 6.23537L18.2809 6.10218L18.044 6.04023L17.7977 5.98602L17.7033 5.97054L17.6041 5.95815L17.5004 5.95195L17.3935 5.94885L17.2836 5.95195L17.1705 5.95815L16.9397 5.98138L16.6904 6.02164L16.5789 6.04642L16.4736 6.07275L16.2598 6.13315L16.0198 6.20904L15.628 6.33139L15.8742 6.13625L16.4937 5.66389Z" fill="url(#paint1_linear_6502_1670)"/>
<defs>
<linearGradient id="paint0_linear_6502_1670" x1="14.4805" y1="21.8665" x2="31.521" y2="21.8665" gradientUnits="userSpaceOnUse">
<stop stop-color="#A55906"/>
<stop offset="1" stop-color="#FECD51"/>
</linearGradient>
<linearGradient id="paint1_linear_6502_1670" x1="1.56097" y1="24.4978" x2="44.4357" y2="21.4995" gradientUnits="userSpaceOnUse">
<stop stop-color="#A55906"/>
<stop offset="1" stop-color="#FECD51"/>
</linearGradient>
</defs>
</svg>
